<?xml version="1.0" encoding="us-ascii" standalone="no"?><svg xmlns="http://www.w3.org/2000/svg" xmlns:xlink="http://www.w3.org/1999/xlink" contentStyleType="text/css" height="1195px" preserveAspectRatio="none" style="width:504px;height:1195px;background:#FFFFFF;" version="1.1" viewBox="0 0 504 1195" width="504px" zoomAndPan="magnify"><defs/><g><!--cluster Client Layer--><g id="cluster_Client Layer"><path d="M14.5,6 L101.5,6 A3.75,3.75 0 0 1 104,8.5 L111,28.4883 L137.5,28.4883 A2.5,2.5 0 0 1 140,30.9883 L140,90.99 A2.5,2.5 0 0 1 137.5,93.49 L14.5,93.49 A2.5,2.5 0 0 1 12,90.99 L12,8.5 A2.5,2.5 0 0 1 14.5,6 " fill="none" style="stroke:#000000;stroke-width:1.5;"/><line style="stroke:#000000;stroke-width:1.5;" x1="12" x2="111" y1="28.4883" y2="28.4883"/><text fill="#000000" font-family="sans-serif" font-size="14" font-weight="bold" lengthAdjust="spacing" textLength="86" x="16" y="21.5352">Client Layer</text></g><!--cluster API Gateway Layer--><g id="cluster_API Gateway Layer"><path d="M29.5,172.87 L162.5,172.87 A3.75,3.75 0 0 1 165,175.37 L172,195.3583 L283.5,195.3583 A2.5,2.5 0 0 1 286,197.8583 L286,483.83 A2.5,2.5 0 0 1 283.5,486.33 L29.5,486.33 A2.5,2.5 0 0 1 27,483.83 L27,175.37 A2.5,2.5 0 0 1 29.5,172.87 " fill="none" style="stroke:#000000;stroke-width:1.5;"/><line style="stroke:#000000;stroke-width:1.5;" x1="27" x2="172" y1="195.3583" y2="195.3583"/><text fill="#000000" font-family="sans-serif" font-size="14" font-weight="bold" lengthAdjust="spacing" textLength="132" x="31" y="188.4052">API Gateway Layer</text></g><!--cluster Business Logic Layer--><g id="cluster_Business Logic Layer"><path d="M8.5,547.02 L159.5,547.02 A3.75,3.75 0 0 1 162,549.52 L169,569.5083 L254.5,569.5083 A2.5,2.5 0 0 1 257,572.0083 L257,799.18 A2.5,2.5 0 0 1 254.5,801.68 L8.5,801.68 A2.5,2.5 0 0 1 6,799.18 L6,549.52 A2.5,2.5 0 0 1 8.5,547.02 " fill="none" style="stroke:#000000;stroke-width:1.5;"/><line style="stroke:#000000;stroke-width:1.5;" x1="6" x2="169" y1="569.5083" y2="569.5083"/><text fill="#000000" font-family="sans-serif" font-size="14" font-weight="bold" lengthAdjust="spacing" textLength="150" x="10" y="562.5552">Business Logic Layer</text></g><!--cluster Data Access Layer--><g id="cluster_Data Access Layer"><path d="M283.5,714.19 L413.5,714.19 A3.75,3.75 0 0 1 416,716.69 L423,736.6783 L494.5,736.6783 A2.5,2.5 0 0 1 497,739.1783 L497,914.67 A2.5,2.5 0 0 1 494.5,917.17 L283.5,917.17 A2.5,2.5 0 0 1 281,914.67 L281,716.69 A2.5,2.5 0 0 1 283.5,714.19 " fill="none" style="stroke:#000000;stroke-width:1.5;"/><line style="stroke:#000000;stroke-width:1.5;" x1="281" x2="423" y1="736.6783" y2="736.6783"/><text fill="#000000" font-family="sans-serif" font-size="14" font-weight="bold" lengthAdjust="spacing" textLength="129" x="285" y="729.7252">Data Access Layer</text></g><!--cluster Data Storage Layer--><g id="cluster_Data Storage Layer"><path d="M106.5,966.17 L242.5,966.17 A3.75,3.75 0 0 1 245,968.67 L252,988.6583 L368.5,988.6583 A2.5,2.5 0 0 1 371,991.1583 L371,1067.65 A2.5,2.5 0 0 1 368.5,1070.15 L106.5,1070.15 A2.5,2.5 0 0 1 104,1067.65 L104,968.67 A2.5,2.5 0 0 1 106.5,966.17 " fill="none" style="stroke:#000000;stroke-width:1.5;"/><line style="stroke:#000000;stroke-width:1.5;" x1="104" x2="252" y1="988.6583" y2="988.6583"/><text fill="#000000" font-family="sans-serif" font-size="14" font-weight="bold" lengthAdjust="spacing" textLength="135" x="108" y="981.7052">Data Storage Layer</text></g><!--entity flutter--><g id="elem_flutter"><rect fill="#F1F1F1" height="36.4883" rx="2.5" ry="2.5" style="stroke:#181818;stroke-width:0.5;" width="97" x="27.5" y="41"/><text fill="#000000" font-family="sans-serif" font-size="14" lengthAdjust="spacing" textLength="77" x="37.5" y="64.5352">Flutter App</text></g><!--entity router--><g id="elem_router"><rect fill="#F1F1F1" height="36.4883" rx="2.5" ry="2.5" style="stroke:#181818;stroke-width:0.5;" width="120" x="72" y="433.84"/><text fill="#000000" font-family="sans-serif" font-size="14" lengthAdjust="spacing" textLength="100" x="82" y="457.3752">FastAPI Router</text></g><!--entity auth_mw--><g id="elem_auth_mw"><rect fill="#F1F1F1" height="36.4883" rx="2.5" ry="2.5" style="stroke:#181818;stroke-width:0.5;" width="204" x="54" y="305.35"/><text fill="#000000" font-family="sans-serif" font-size="14" lengthAdjust="spacing" textLength="184" x="64" y="328.8852">Authentication Middleware</text></g><!--entity cors_mw--><g id="elem_cors_mw"><rect fill="#F1F1F1" height="36.4883" rx="2.5" ry="2.5" style="stroke:#181818;stroke-width:0.5;" width="141" x="85.5" y="207.87"/><text fill="#000000" font-family="sans-serif" font-size="14" lengthAdjust="spacing" textLength="121" x="95.5" y="231.4052">CORS Middleware</text></g><!--entity services--><g id="elem_services"><rect fill="#F1F1F1" height="36.4883" rx="2.5" ry="2.5" style="stroke:#181818;stroke-width:0.5;" width="160" x="81" y="582.02"/><text fill="#000000" font-family="sans-serif" font-size="14" lengthAdjust="spacing" textLength="140" x="91" y="605.5552">Service Components</text></g><!--entity ml--><g id="elem_ml"><rect fill="#F1F1F1" height="36.4883" rx="2.5" ry="2.5" style="stroke:#181818;stroke-width:0.5;" width="90" x="124" y="749.19"/><text fill="#000000" font-family="sans-serif" font-size="14" lengthAdjust="spacing" textLength="70" x="134" y="772.7252">ML Engine</text></g><!--entity repos--><g id="elem_repos"><rect fill="#F1F1F1" height="36.4883" rx="2.5" ry="2.5" style="stroke:#181818;stroke-width:0.5;" width="185" x="296.5" y="749.19"/><text fill="#000000" font-family="sans-serif" font-size="14" lengthAdjust="spacing" textLength="165" x="306.5" y="772.7252">Repository Components</text></g><!--entity orm--><g id="elem_orm"><rect fill="#F1F1F1" height="36.4883" rx="2.5" ry="2.5" style="stroke:#181818;stroke-width:0.5;" width="150" x="297" y="864.68"/><text fill="#000000" font-family="sans-serif" font-size="14" lengthAdjust="spacing" textLength="130" x="307" y="888.2152">ORM (SQLAlchemy)</text></g><!--entity db--><g id="elem_db"><path d="M257,1014.92 C257,1004.92 306,1004.92 306,1004.92 C306,1004.92 355,1004.92 355,1014.92 L355,1040.4083 C355,1050.4083 306,1050.4083 306,1050.4083 C306,1050.4083 257,1050.4083 257,1040.4083 L257,1014.92 " fill="#F1F1F1" style="stroke:#181818;stroke-width:0.5;"/><path d="M257,1014.92 C257,1024.92 306,1024.92 306,1024.92 C306,1024.92 355,1024.92 355,1014.92 " fill="none" style="stroke:#181818;stroke-width:0.5;"/><text fill="#000000" font-family="sans-serif" font-size="14" lengthAdjust="spacing" textLength="78" x="267" y="1042.4552">PostgreSQL</text></g><!--entity files--><g id="elem_files"><rect fill="#F1F1F1" height="52.9766" rx="35" ry="35" style="stroke:#181818;stroke-width:0.5;" width="102" x="120" y="1001.17"/><text fill="#000000" font-family="sans-serif" font-size="14" lengthAdjust="spacing" textLength="81" x="130" y="1024.7052">File Storage</text><text fill="#000000" font-family="sans-serif" font-size="14" lengthAdjust="spacing" textLength="82" x="130" y="1041.1934">(ML Models)</text></g><g id="elem_GMN42"><path d="M159.5,23.62 L159.5,55.25 L124.78,59.25 L159.5,63.25 L159.5,94.8622 A0,0 0 0 0 159.5,94.8622 L362.5,94.8622 A0,0 0 0 0 362.5,94.8622 L362.5,33.62 L352.5,23.62 L159.5,23.62 A0,0 0 0 0 159.5,23.62 " fill="#FEFFDD" style="stroke:#181818;stroke-width:0.5;"/><path d="M352.5,23.62 L352.5,33.62 L362.5,33.62 L352.5,23.62 " fill="#FEFFDD" style="stroke:#181818;stroke-width:0.5;"/><text fill="#000000" font-family="sans-serif" font-size="13" font-weight="bold" lengthAdjust="spacing" textLength="61" x="165.5" y="41.1884">Frontend</text><text fill="#000000" font-family="sans-serif" font-size="13" lengthAdjust="spacing" textLength="182" x="165.5" y="56.4989">- Feature-based architecture</text><text fill="#000000" font-family="sans-serif" font-size="13" lengthAdjust="spacing" textLength="99" x="165.5" y="71.8095">- MVVM pattern</text><text fill="#000000" font-family="sans-serif" font-size="13" lengthAdjust="spacing" textLength="167" x="165.5" y="87.12">- Clean architecture layers</text></g><g id="elem_GMN45"><path d="M276,549.33 L276,596.26 L241.21,600.26 L276,604.26 L276,651.1933 A0,0 0 0 0 276,651.1933 L428,651.1933 A0,0 0 0 0 428,651.1933 L428,559.33 L418,549.33 L276,549.33 A0,0 0 0 0 276,549.33 " fill="#FEFFDD" style="stroke:#181818;stroke-width:0.5;"/><path d="M418,549.33 L418,559.33 L428,559.33 L418,549.33 " fill="#FEFFDD" style="stroke:#181818;stroke-width:0.5;"/><text fill="#000000" font-family="sans-serif" font-size="13" font-weight="bold" lengthAdjust="spacing" textLength="116" x="282" y="566.8984">Backend Services</text><text fill="#000000" font-family="sans-serif" font-size="13" lengthAdjust="spacing" textLength="126" x="282" y="582.2089">- HealthDataService</text><text fill="#000000" font-family="sans-serif" font-size="13" lengthAdjust="spacing" textLength="119" x="282" y="597.5195">- PredictionService</text><text fill="#000000" font-family="sans-serif" font-size="13" lengthAdjust="spacing" textLength="109" x="282" y="612.83">- AnalysisService</text><text fill="#000000" font-family="sans-serif" font-size="13" lengthAdjust="spacing" textLength="86" x="282" y="628.1405">- AuthService</text><text fill="#000000" font-family="sans-serif" font-size="13" lengthAdjust="spacing" textLength="131" x="282" y="643.4511">- NotificationService</text></g><g id="elem_GMN48"><path d="M184.5,1117.15 L184.5,1188.3922 A0,0 0 0 0 184.5,1188.3922 L427.5,1188.3922 A0,0 0 0 0 427.5,1188.3922 L427.5,1127.15 L417.5,1117.15 L310,1117.15 L306,1050.67 L302,1117.15 L184.5,1117.15 A0,0 0 0 0 184.5,1117.15 " fill="#FEFFDD" style="stroke:#181818;stroke-width:0.5;"/><path d="M417.5,1117.15 L417.5,1127.15 L427.5,1127.15 L417.5,1117.15 " fill="#FEFFDD" style="stroke:#181818;stroke-width:0.5;"/><text fill="#000000" font-family="sans-serif" font-size="13" font-weight="bold" lengthAdjust="spacing" textLength="83" x="190.5" y="1134.7184">Data Models</text><text fill="#000000" font-family="sans-serif" font-size="13" lengthAdjust="spacing" textLength="222" x="190.5" y="1150.0289">- User, Patient, Guardian, Physician</text><text fill="#000000" font-family="sans-serif" font-size="13" lengthAdjust="spacing" textLength="180" x="190.5" y="1165.3395">- HealthData, RiskPrediction</text><text fill="#000000" font-family="sans-serif" font-size="13" lengthAdjust="spacing" textLength="211" x="190.5" y="1180.65">- SharingPermission, Notification</text></g><!--link flutter to cors_mw--><g id="link_flutter_cors_mw"><path d="M66.07,77.63 C56,97.77 43.64,131.44 57,156.87 C68.94,179.6 86.9611,193.4254 107.9711,204.5854 " fill="none" id="flutter-to-cors_mw" style="stroke:#181818;stroke-width:1.0;"/><polygon fill="#181818" points="113.27,207.4,107.1981,199.6455,108.8543,205.0545,103.4453,206.7106,113.27,207.4" style="stroke:#181818;stroke-width:1.0;"/><text fill="#000000" font-family="sans-serif" font-size="13" lengthAdjust="spacing" textLength="70" x="58" y="138.4384">HTTP/REST</text><text fill="#000000" font-family="sans-serif" font-size="13" lengthAdjust="spacing" textLength="31" x="77.5" y="153.7489">JSON</text></g><!--reverse link flutter to cors_mw--><g id="link_flutter_cors_mw"><path d="M100.2931,82.041 C112.7431,94.081 123.78,106.9 133,124.87 C146.78,151.71 152.39,186.8 154.61,207.55 " fill="none" id="flutter-backto-cors_mw" style="stroke:#181818;stroke-width:1.0;stroke-dasharray:1.0,3.0;"/><polygon fill="#181818" points="95.98,77.87,99.6689,87.0019,99.5742,81.3459,105.2303,81.2512,95.98,77.87" style="stroke:#181818;stroke-width:1.0;"/><text fill="#000000" font-family="sans-serif" font-size="13" lengthAdjust="spacing" textLength="95" x="146.02" y="145.9384">JSON Response</text></g><!--link cors_mw to auth_mw--><g id="link_cors_mw_auth_mw"><path d="M145.57,244.62 C141.99,261.75 140.7665,281.804 144.3165,298.994 " fill="none" id="cors_mw-to-auth_mw" style="stroke:#181818;stroke-width:1.0;"/><polygon fill="#181818" points="145.53,304.87,147.6271,295.247,144.5188,299.9733,139.7924,296.865,145.53,304.87" style="stroke:#181818;stroke-width:1.0;"/></g><!--reverse link cors_mw to auth_mw--><g id="link_cors_mw_auth_mw"><path d="M167.6574,250.4931 C171.2374,267.6231 170.02,287.68 166.47,304.87 " fill="none" id="cors_mw-backto-auth_mw" style="stroke:#181818;stroke-width:1.0;stroke-dasharray:1.0,3.0;"/><polygon fill="#181818" points="166.43,244.62,164.3557,254.2479,167.4529,249.5143,172.1865,252.6114,166.43,244.62" style="stroke:#181818;stroke-width:1.0;"/></g><!--link auth_mw to router--><g id="link_auth_mw_router"><path d="M107.62,342.17 C94.75,349.31 82.38,359 75,371.84 C67.92,384.18 68.95,390.97 75,403.84 C80.63,415.82 86.1405,422.2362 96.4705,429.8962 " fill="none" id="auth_mw-to-router" style="stroke:#181818;stroke-width:1.0;"/><polygon fill="#181818" points="101.29,433.47,96.4433,424.8963,97.2737,430.4918,91.6782,431.3223,101.29,433.47" style="stroke:#181818;stroke-width:1.0;"/><text fill="#000000" font-family="sans-serif" font-size="13" lengthAdjust="spacing" textLength="88" x="76" y="385.4084">Authenticated</text><text fill="#000000" font-family="sans-serif" font-size="13" lengthAdjust="spacing" textLength="57" x="91.5" y="400.7189">Requests</text></g><!--reverse link auth_mw to router--><g id="link_auth_mw_router"><path d="M165.8403,347.9578 C171.8803,364.2978 176.05,383.41 169,403.84 C165.19,414.87 157.64,425.3 150.34,433.53 " fill="none" id="auth_mw-backto-router" style="stroke:#181818;stroke-width:1.0;stroke-dasharray:1.0,3.0;"/><polygon fill="#181818" points="163.76,342.33,163.1286,352.1586,165.4936,347.0199,170.6323,349.3849,163.76,342.33" style="stroke:#181818;stroke-width:1.0;"/><text fill="#000000" font-family="sans-serif" font-size="13" lengthAdjust="spacing" textLength="60" x="173.12" y="392.9084">Response</text></g><!--link router to services--><g id="link_router_services"><path d="M105.62,470.68 C90.38,483.23 75.56,501.05 83,519.33 C93.53,545.19 112.1558,563.5639 130.5858,577.9139 " fill="none" id="router-to-services" style="stroke:#181818;stroke-width:1.0;"/><polygon fill="#181818" points="135.32,581.6,130.6762,572.9147,131.3749,578.5282,125.7613,579.2269,135.32,581.6" style="stroke:#181818;stroke-width:1.0;"/><text fill="#000000" font-family="sans-serif" font-size="13" lengthAdjust="spacing" textLength="79" x="84" y="515.8984">Service Calls</text></g><!--reverse link router to services--><g id="link_router_services"><path d="M152.9509,475.2811 C160.2909,484.0511 164.19,490.65 168,502.33 C176.69,528.96 171.17,561.81 166.21,581.62 " fill="none" id="router-backto-services" style="stroke:#181818;stroke-width:1.0;stroke-dasharray:1.0,3.0;"/><polygon fill="#181818" points="149.1,470.68,151.8089,480.149,152.3091,474.5143,157.9438,475.0145,149.1,470.68" style="stroke:#181818;stroke-width:1.0;"/><text fill="#000000" font-family="sans-serif" font-size="13" lengthAdjust="spacing" textLength="97" x="172.46" y="515.8984">DTOs/Schemas</text></g><!--link services to repos--><g id="link_services_repos"><path d="M180.61,618.96 C203.31,639.11 242.19,672.54 278,698.19 C303.93,716.77 329.7821,732.5658 352.4321,745.7258 " fill="none" id="services-to-repos" style="stroke:#181818;stroke-width:1.0;"/><polygon fill="#181818" points="357.62,748.74,351.8477,740.76,353.2968,746.2281,347.8287,747.6772,357.62,748.74" style="stroke:#181818;stroke-width:1.0;"/><text fill="#000000" font-family="sans-serif" font-size="13" lengthAdjust="spacing" textLength="102" x="279" y="694.7584">Data Operations</text></g><!--reverse link services to repos--><g id="link_services_repos"><path d="M196.2925,621.8683 C215.2625,632.4283 235.34,642.51 259,651.19 C313.45,671.17 349.22,636.35 386,681.19 C401.5,700.09 398.26,730.04 394.01,748.94 " fill="none" id="services-backto-repos" style="stroke:#181818;stroke-width:1.0;stroke-dasharray:1.0,3.0;"/><polygon fill="#181818" points="191.05,618.95,196.9682,626.8224,195.4187,621.3819,200.8592,619.8325,191.05,618.95" style="stroke:#181818;stroke-width:1.0;"/><text fill="#000000" font-family="sans-serif" font-size="13" lengthAdjust="spacing" textLength="47" x="395.35" y="694.7584">Entities</text></g><!--link services to ml--><g id="link_services_ml"><path d="M115.2,618.86 C78.06,636.02 34.78,664.43 54,698.19 C68.93,724.42 92.8224,739.3001 118.1624,749.8701 " fill="none" id="services-to-ml" style="stroke:#181818;stroke-width:1.0;"/><polygon fill="#181818" points="123.7,752.18,116.9336,745.0235,119.0854,750.2551,113.8538,752.4069,123.7,752.18" style="stroke:#181818;stroke-width:1.0;"/><text fill="#000000" font-family="sans-serif" font-size="13" lengthAdjust="spacing" textLength="70" x="55" y="694.7584">Predictions</text></g><!--reverse link services to ml--><g id="link_services_ml"><path d="M162.1503,624.933 C163.6903,656.723 166.61,717.19 168.15,748.89 " fill="none" id="services-backto-ml" style="stroke:#181818;stroke-width:1.0;stroke-dasharray:1.0,3.0;"/><polygon fill="#181818" points="161.86,618.94,158.3002,628.123,162.1019,623.9341,166.2908,627.7359,161.86,618.94" style="stroke:#181818;stroke-width:1.0;"/><text fill="#000000" font-family="sans-serif" font-size="13" lengthAdjust="spacing" textLength="70" x="166.48" y="694.7584">Predictions</text></g><!--link repos to orm--><g id="link_repos_orm"><path d="M364.56,786.03 C355,794.41 345.11,805.31 340,817.68 C333.34,833.81 339.7007,846.8992 350.3007,859.6292 " fill="none" id="repos-to-orm" style="stroke:#181818;stroke-width:1.0;"/><polygon fill="#181818" points="354.14,864.24,351.4549,854.7642,350.9406,860.3977,345.3071,859.8833,354.14,864.24" style="stroke:#181818;stroke-width:1.0;"/><text fill="#000000" font-family="sans-serif" font-size="13" lengthAdjust="spacing" textLength="37" x="341" y="831.2484">Query</text></g><!--reverse link repos to orm--><g id="link_repos_orm"><path d="M387.6913,791.9474 C386.8213,805.3474 385.64,818.27 383,834.68 C381.39,844.66 378.88,855.66 376.66,864.54 " fill="none" id="repos-backto-orm" style="stroke:#181818;stroke-width:1.0;stroke-dasharray:1.0,3.0;"/><polygon fill="#181818" points="388.08,785.96,383.5053,794.6819,387.7561,790.9495,391.4885,795.2002,388.08,785.96" style="stroke:#181818;stroke-width:1.0;"/><text fill="#000000" font-family="sans-serif" font-size="13" lengthAdjust="spacing" textLength="45" x="386.22" y="831.2484">Models</text></g><!--link orm to db--><g id="link_orm_db"><path d="M334.59,901.46 C322.22,909.3 309.87,919.82 303,933.17 C291.55,955.41 293.621,978.8713 298.161,998.7013 " fill="none" id="orm-to-db" style="stroke:#181818;stroke-width:1.0;"/><polygon fill="#181818" points="299.5,1004.55,301.3906,994.8843,298.3841,999.6761,293.5923,996.6697,299.5,1004.55" style="stroke:#181818;stroke-width:1.0;"/><text fill="#000000" font-family="sans-serif" font-size="13" lengthAdjust="spacing" textLength="24" x="304" y="946.7384">SQL</text></g><!--reverse link orm to db--><g id="link_orm_db"><path d="M361.391,906.8756 C349.341,932.9256 329.22,976.44 316.1,1004.81 " fill="none" id="orm-backto-db" style="stroke:#181818;stroke-width:1.0;stroke-dasharray:1.0,3.0;"/><polygon fill="#181818" points="363.91,901.43,356.5011,907.9191,361.8108,905.968,363.7619,911.2777,363.91,901.43" style="stroke:#181818;stroke-width:1.0;"/><text fill="#000000" font-family="sans-serif" font-size="13" lengthAdjust="spacing" textLength="62" x="349.77" y="946.7384">Result Set</text></g><!--link ml to files--><g id="link_ml_files"><path d="M169.13,785.78 C169.48,830.22 170.3432,942.3602 170.7532,994.8702 " fill="none" id="ml-to-files" style="stroke:#181818;stroke-width:1.0;"/><polygon fill="#181818" points="170.8,1000.87,174.7296,991.839,170.761,995.8702,166.7299,991.9015,170.8,1000.87" style="stroke:#181818;stroke-width:1.0;"/><text fill="#000000" font-family="sans-serif" font-size="13" lengthAdjust="spacing" textLength="79" x="171.2" y="887.9984">Load Models</text></g><!--SRC=[TLHDSzem4BthLsovDF70v9v3PoY1f1q8nAQv99cEi0JMH9PSIIx3TFhVkv8jOzEM2zQ-jszN-w4FZE-5uf3EPzlfu_ro3hcarX9YtuMggA4bvBgijEBAPUuaEHYUEweEaXDIqVoT7ZYCPb8W3ajwucO4lmZWxsKXQ-UuWMbLlG6ri6_Ev7VFSRhv0lVKyICzNNfJwpoQwXgTWe09dmqyhLs18KLEdT0ALe8nYIg61oP5z7jvRAYpTPfT4d9jh2VqS_bSMwo4jR3K1v5Vf9DnyrFa76Qn63ResCPi6z9g2NDrG960bN8WVqSTXMcUXmW3xPHNsWgdpUbItdYa8QtJ5LnbJykfp0jUdgu3hatvTumCbVnf48GXigCMEHjjtS5mb1fv2ROBk6sTHWk1FMubNjKLNccb6PVsEh3tY5eVygDFjQnLR415NM59ssAOC7rKaq-np70B3zljvYQTPzjNzJLRFvA8H6RiMFlVsPkUeq2luPozgfJ_gBbrbhI4o8yDGO-kPLHAIpgWK_QrHLgesRhY9bpa7yHI8cjZE1DvmsWy8umzGFofvkP4_7UqivtFuMb9q3_QGldGlDIKjNNrfKovnQvZS_PI7-6AQImYkoQeCAchb-RureL2TYqTNiyryGQKUAjMl4rrGEcLQ8u5TG8xwdFy7wb_zNDnXb5Zb-wsQtkJ-GcbvzOCgB71jzsjppqV4EEATfCoGEEatO8VfxCMKThX6oKEXGEzxzuSW2HP6AqSLon9y3Y11QUkDdpYju81DNaX73vjQ0hmwlbvvQSQlLKmp2IdQi03wJVC4jG47xODBla-nEwz3Kdo6LVKyzgXj6qI3vnAL_WHR85WFLUyRvqgAazMs84DIzS_FsedzkrEHlj5UZkieIvzWc7raoGiG3ClRLRVCFKnR505DsuCzpKrJ525fW8JoF7p8lanfCA-dzCES5PG8zHXmqqfh4NhU93UEQy_]--></g></svg>