<?xml version="1.0" encoding="us-ascii" standalone="no"?><svg xmlns="http://www.w3.org/2000/svg" xmlns:xlink="http://www.w3.org/1999/xlink" contentStyleType="text/css" height="1865px" preserveAspectRatio="none" style="width:2817px;height:1865px;background:#FFFFFF;" version="1.1" viewBox="0 0 2817 1865" width="2817px" zoomAndPan="magnify"><defs/><g><!--cluster FastAPI Backend Architecture--><g id="cluster_FastAPI Backend Architecture"><rect fill="none" height="1852.47" rx="2.5" ry="2.5" style="stroke:#000000;stroke-width:1.5;" width="2547" x="7" y="7"/><text fill="#000000" font-family="sans-serif" font-size="14" font-weight="bold" lengthAdjust="spacing" textLength="210" x="1175.5" y="22.5352">FastAPI Backend Architecture</text></g><!--cluster app--><g id="cluster_app"><rect fill="none" height="1785.47" rx="2.5" ry="2.5" style="stroke:#000000;stroke-width:1.5;" width="2345" x="31" y="50"/><text fill="#000000" font-family="sans-serif" font-size="14" font-weight="bold" lengthAdjust="spacing" textLength="26" x="1190.5" y="65.5352">app</text></g><!--cluster api--><g id="cluster_api"><rect fill="#E3F2FD" height="573.93" rx="2.5" ry="2.5" style="stroke:#000000;stroke-width:1.5;" width="1198" x="63" y="101"/><text fill="#000000" font-family="sans-serif" font-size="14" font-style="italic" lengthAdjust="spacing" textLength="50" x="637" y="116.5352">&#171;Layer&#187;</text><text fill="#000000" font-family="sans-serif" font-size="14" font-weight="bold" lengthAdjust="spacing" textLength="22" x="651" y="133.0234">api</text></g><!--cluster v1--><g id="cluster_v1"><rect fill="none" height="474.93" rx="2.5" ry="2.5" style="stroke:#000000;stroke-width:1.5;" width="1126" x="95" y="168"/><text fill="#000000" font-family="sans-serif" font-size="14" font-weight="bold" lengthAdjust="spacing" textLength="17" x="649.5" y="183.5352">v1</text></g><!--cluster endpoints--><g id="cluster_endpoints"><rect fill="none" height="391.93" rx="2.5" ry="2.5" style="stroke:#000000;stroke-width:1.5;" width="725" x="127" y="219"/><text fill="#000000" font-family="sans-serif" font-size="14" font-weight="bold" lengthAdjust="spacing" textLength="72" x="453.5" y="234.5352">endpoints</text></g><!--cluster dependencies--><g id="cluster_dependencies"><rect fill="none" height="99" rx="2.5" ry="2.5" style="stroke:#000000;stroke-width:1.5;" width="313" x="884" y="251.73"/><text fill="#000000" font-family="sans-serif" font-size="14" font-weight="bold" lengthAdjust="spacing" textLength="97" x="992" y="267.2652">dependencies</text></g><!--cluster services--><g id="cluster_services"><rect fill="#E8F5E9" height="180.47" rx="2.5" ry="2.5" style="stroke:#000000;stroke-width:1.5;" width="1033" x="1301" y="430.46"/><text fill="#000000" font-family="sans-serif" font-size="14" font-style="italic" lengthAdjust="spacing" textLength="50" x="1792.5" y="445.9952">&#171;Layer&#187;</text><text fill="#000000" font-family="sans-serif" font-size="14" font-weight="bold" lengthAdjust="spacing" textLength="58" x="1788.5" y="462.4834">services</text></g><!--cluster repositories--><g id="cluster_repositories"><rect fill="#FFF3E0" height="180.47" rx="2.5" ry="2.5" style="stroke:#000000;stroke-width:1.5;" width="918" x="1336" y="756.41"/><text fill="#000000" font-family="sans-serif" font-size="14" font-style="italic" lengthAdjust="spacing" textLength="50" x="1770" y="771.9452">&#171;Layer&#187;</text><text fill="#000000" font-family="sans-serif" font-size="14" font-weight="bold" lengthAdjust="spacing" textLength="87" x="1751.5" y="788.4334">repositories</text></g><!--cluster models--><g id="cluster_models"><rect fill="#F3E5F5" height="381.66" rx="2.5" ry="2.5" style="stroke:#000000;stroke-width:1.5;" width="431" x="1427" y="1001.88"/><text fill="#000000" font-family="sans-serif" font-size="14" font-style="italic" lengthAdjust="spacing" textLength="50" x="1617.5" y="1017.4152">&#171;Layer&#187;</text><text fill="#000000" font-family="sans-serif" font-size="14" font-weight="bold" lengthAdjust="spacing" textLength="53" x="1616" y="1033.9034">models</text></g><!--cluster schemas--><g id="cluster_schemas"><rect fill="#FCE4EC" height="348.68" rx="2.5" ry="2.5" style="stroke:#000000;stroke-width:1.5;" width="446" x="1898" y="1018.37"/><text fill="#000000" font-family="sans-serif" font-size="14" font-style="italic" lengthAdjust="spacing" textLength="50" x="2096" y="1033.9052">&#171;Layer&#187;</text><text fill="#000000" font-family="sans-serif" font-size="14" font-weight="bold" lengthAdjust="spacing" textLength="62" x="2090" y="1050.3934">schemas</text></g><!--cluster core--><g id="cluster_core"><rect fill="#FFF9C4" height="354.93" rx="2.5" ry="2.5" style="stroke:#000000;stroke-width:1.5;" width="417" x="1436" y="1448.54"/><text fill="#000000" font-family="sans-serif" font-size="14" font-style="italic" lengthAdjust="spacing" textLength="50" x="1619.5" y="1464.0752">&#171;Layer&#187;</text><text fill="#000000" font-family="sans-serif" font-size="14" font-weight="bold" lengthAdjust="spacing" textLength="30" x="1629.5" y="1480.5634">core</text></g><!--cluster ml--><g id="cluster_ml"><rect fill="#C8E6C9" height="450.66" rx="2.5" ry="2.5" style="stroke:#000000;stroke-width:1.5;" width="465" x="831" y="739.93"/><text fill="#000000" font-family="sans-serif" font-size="14" font-style="italic" lengthAdjust="spacing" textLength="50" x="1038.5" y="755.4652">&#171;Layer&#187;</text><text fill="#000000" font-family="sans-serif" font-size="14" font-weight="bold" lengthAdjust="spacing" textLength="19" x="1054" y="771.9534">ml</text></g><!--cluster External--><g id="cluster_External"><rect fill="none" height="96.49" rx="2.5" ry="2.5" style="stroke:#000000;stroke-width:1.5;" width="130" x="2400" y="1672.99"/><text fill="#000000" font-family="sans-serif" font-size="14" font-weight="bold" lengthAdjust="spacing" textLength="58" x="2436" y="1688.5252">External</text></g><!--class health_endpoint--><g id="elem_health_endpoint"><rect codeLine="12" fill="#F1F1F1" height="97.4648" id="health_endpoint" rx="2.5" ry="2.5" style="stroke:#181818;stroke-width:0.5;" width="199" x="151.5" y="262"/><ellipse cx="206.75" cy="278" fill="#ADD1B2" rx="11" ry="11" style="stroke:#181818;stroke-width:1.0;"/><path d="M209.2231,284.1431 Q208.6421,284.4419 208.0029,284.5913 Q207.3638,284.7407 206.6582,284.7407 Q204.1514,284.7407 202.8315,283.0889 Q201.5117,281.437 201.5117,278.3159 Q201.5117,275.1865 202.8315,273.5347 Q204.1514,271.8828 206.6582,271.8828 Q207.3638,271.8828 208.0112,272.0322 Q208.6587,272.1816 209.2231,272.4805 L209.2231,275.2031 Q208.5923,274.6221 207.9988,274.3523 Q207.4053,274.0825 206.7744,274.0825 Q205.4297,274.0825 204.7449,275.1492 Q204.0601,276.2158 204.0601,278.3159 Q204.0601,280.4077 204.7449,281.4744 Q205.4297,282.541 206.7744,282.541 Q207.4053,282.541 207.9988,282.2712 Q208.5923,282.0015 209.2231,281.4204 Z " fill="#000000"/><text fill="#000000" font-family="sans-serif" font-size="14" lengthAdjust="spacing" textLength="80" x="227.25" y="283.291">health_data</text><line style="stroke:#181818;stroke-width:0.5;" x1="152.5" x2="349.5" y1="294" y2="294"/><ellipse cx="162.5" cy="307.7441" fill="none" rx="3" ry="3" style="stroke:#038048;stroke-width:1.0;"/><text fill="#000000" font-family="sans-serif" font-size="14" lengthAdjust="spacing" textLength="128" x="171.5" y="311.5352">POST /health-data</text><ellipse cx="162.5" cy="324.2324" fill="none" rx="3" ry="3" style="stroke:#038048;stroke-width:1.0;"/><text fill="#000000" font-family="sans-serif" font-size="14" lengthAdjust="spacing" textLength="149" x="171.5" y="328.0234">GET /health-data/{id}</text><ellipse cx="162.5" cy="340.7207" fill="none" rx="3" ry="3" style="stroke:#038048;stroke-width:1.0;"/><text fill="#000000" font-family="sans-serif" font-size="14" lengthAdjust="spacing" textLength="173" x="171.5" y="344.5117">GET /health-data/history</text><line style="stroke:#181818;stroke-width:0.5;" x1="152.5" x2="349.5" y1="351.4648" y2="351.4648"/></g><!--class pred_endpoint--><g id="elem_pred_endpoint"><rect codeLine="17" fill="#F1F1F1" height="97.4648" id="pred_endpoint" rx="2.5" ry="2.5" style="stroke:#181818;stroke-width:0.5;" width="195" x="385.5" y="262"/><ellipse cx="443.75" cy="278" fill="#ADD1B2" rx="11" ry="11" style="stroke:#181818;stroke-width:1.0;"/><path d="M446.2231,284.1431 Q445.6421,284.4419 445.0029,284.5913 Q444.3638,284.7407 443.6582,284.7407 Q441.1514,284.7407 439.8315,283.0889 Q438.5117,281.437 438.5117,278.3159 Q438.5117,275.1865 439.8315,273.5347 Q441.1514,271.8828 443.6582,271.8828 Q444.3638,271.8828 445.0112,272.0322 Q445.6587,272.1816 446.2231,272.4805 L446.2231,275.2031 Q445.5923,274.6221 444.9988,274.3523 Q444.4053,274.0825 443.7744,274.0825 Q442.4297,274.0825 441.7449,275.1492 Q441.0601,276.2158 441.0601,278.3159 Q441.0601,280.4077 441.7449,281.4744 Q442.4297,282.541 443.7744,282.541 Q444.4053,282.541 444.9988,282.2712 Q445.5923,282.0015 446.2231,281.4204 Z " fill="#000000"/><text fill="#000000" font-family="sans-serif" font-size="14" lengthAdjust="spacing" textLength="70" x="464.25" y="283.291">prediction</text><line style="stroke:#181818;stroke-width:0.5;" x1="386.5" x2="579.5" y1="294" y2="294"/><ellipse cx="396.5" cy="307.7441" fill="none" rx="3" ry="3" style="stroke:#038048;stroke-width:1.0;"/><text fill="#000000" font-family="sans-serif" font-size="14" lengthAdjust="spacing" textLength="95" x="405.5" y="311.5352">POST /predict</text><ellipse cx="396.5" cy="324.2324" fill="none" rx="3" ry="3" style="stroke:#038048;stroke-width:1.0;"/><text fill="#000000" font-family="sans-serif" font-size="14" lengthAdjust="spacing" textLength="145" x="405.5" y="328.0234">GET /predictions/{id}</text><ellipse cx="396.5" cy="340.7207" fill="none" rx="3" ry="3" style="stroke:#038048;stroke-width:1.0;"/><text fill="#000000" font-family="sans-serif" font-size="14" lengthAdjust="spacing" textLength="169" x="405.5" y="344.5117">GET /predictions/history</text><line style="stroke:#181818;stroke-width:0.5;" x1="386.5" x2="579.5" y1="351.4648" y2="351.4648"/></g><!--class analysis_endpoint--><g id="elem_analysis_endpoint"><rect codeLine="22" fill="#F1F1F1" height="97.4648" id="analysis_endpoint" rx="2.5" ry="2.5" style="stroke:#181818;stroke-width:0.5;" width="193" x="615.5" y="262"/><ellipse cx="680.75" cy="278" fill="#ADD1B2" rx="11" ry="11" style="stroke:#181818;stroke-width:1.0;"/><path d="M683.2231,284.1431 Q682.6421,284.4419 682.0029,284.5913 Q681.3638,284.7407 680.6582,284.7407 Q678.1514,284.7407 676.8315,283.0889 Q675.5117,281.437 675.5117,278.3159 Q675.5117,275.1865 676.8315,273.5347 Q678.1514,271.8828 680.6582,271.8828 Q681.3638,271.8828 682.0112,272.0322 Q682.6587,272.1816 683.2231,272.4805 L683.2231,275.2031 Q682.5923,274.6221 681.9988,274.3523 Q681.4053,274.0825 680.7744,274.0825 Q679.4297,274.0825 678.7449,275.1492 Q678.0601,276.2158 678.0601,278.3159 Q678.0601,280.4077 678.7449,281.4744 Q679.4297,282.541 680.7744,282.541 Q681.4053,282.541 681.9988,282.2712 Q682.5923,282.0015 683.2231,281.4204 Z " fill="#000000"/><text fill="#000000" font-family="sans-serif" font-size="14" lengthAdjust="spacing" textLength="54" x="701.25" y="283.291">analysis</text><line style="stroke:#181818;stroke-width:0.5;" x1="616.5" x2="807.5" y1="294" y2="294"/><ellipse cx="626.5" cy="307.7441" fill="none" rx="3" ry="3" style="stroke:#038048;stroke-width:1.0;"/><text fill="#000000" font-family="sans-serif" font-size="14" lengthAdjust="spacing" textLength="159" x="635.5" y="311.5352">POST /what-if-analysis</text><ellipse cx="626.5" cy="324.2324" fill="none" rx="3" ry="3" style="stroke:#038048;stroke-width:1.0;"/><text fill="#000000" font-family="sans-serif" font-size="14" lengthAdjust="spacing" textLength="167" x="635.5" y="328.0234">GET /percentile-ranking</text><ellipse cx="626.5" cy="340.7207" fill="none" rx="3" ry="3" style="stroke:#038048;stroke-width:1.0;"/><text fill="#000000" font-family="sans-serif" font-size="14" lengthAdjust="spacing" textLength="160" x="635.5" y="344.5117">GET /trend-forecasting</text><line style="stroke:#181818;stroke-width:0.5;" x1="616.5" x2="807.5" y1="351.4648" y2="351.4648"/></g><!--class users_endpoint--><g id="elem_users_endpoint"><rect codeLine="27" fill="#F1F1F1" height="97.4648" id="users_endpoint" rx="2.5" ry="2.5" style="stroke:#181818;stroke-width:0.5;" width="129" x="186.5" y="489.46"/><ellipse cx="228.5" cy="505.46" fill="#ADD1B2" rx="11" ry="11" style="stroke:#181818;stroke-width:1.0;"/><path d="M230.9731,511.6031 Q230.3921,511.9019 229.7529,512.0513 Q229.1138,512.2007 228.4082,512.2007 Q225.9014,512.2007 224.5815,510.5489 Q223.2617,508.897 223.2617,505.7759 Q223.2617,502.6465 224.5815,500.9947 Q225.9014,499.3428 228.4082,499.3428 Q229.1138,499.3428 229.7612,499.4922 Q230.4087,499.6416 230.9731,499.9405 L230.9731,502.6631 Q230.3423,502.0821 229.7488,501.8123 Q229.1553,501.5425 228.5244,501.5425 Q227.1797,501.5425 226.4949,502.6092 Q225.8101,503.6758 225.8101,505.7759 Q225.8101,507.8677 226.4949,508.9344 Q227.1797,510.001 228.5244,510.001 Q229.1553,510.001 229.7488,509.7312 Q230.3423,509.4615 230.9731,508.8804 Z " fill="#000000"/><text fill="#000000" font-family="sans-serif" font-size="14" lengthAdjust="spacing" textLength="37" x="248.5" y="510.751">users</text><line style="stroke:#181818;stroke-width:0.5;" x1="187.5" x2="314.5" y1="521.46" y2="521.46"/><ellipse cx="197.5" cy="535.2041" fill="none" rx="3" ry="3" style="stroke:#038048;stroke-width:1.0;"/><text fill="#000000" font-family="sans-serif" font-size="14" lengthAdjust="spacing" textLength="100" x="206.5" y="538.9952">POST /register</text><ellipse cx="197.5" cy="551.6924" fill="none" rx="3" ry="3" style="stroke:#038048;stroke-width:1.0;"/><text fill="#000000" font-family="sans-serif" font-size="14" lengthAdjust="spacing" textLength="82" x="206.5" y="555.4834">POST /login</text><ellipse cx="197.5" cy="568.1807" fill="none" rx="3" ry="3" style="stroke:#038048;stroke-width:1.0;"/><text fill="#000000" font-family="sans-serif" font-size="14" lengthAdjust="spacing" textLength="103" x="206.5" y="571.9717">GET /users/me</text><line style="stroke:#181818;stroke-width:0.5;" x1="187.5" x2="314.5" y1="578.9248" y2="578.9248"/></g><!--class monitor_endpoint--><g id="elem_monitor_endpoint"><rect codeLine="32" fill="#F1F1F1" height="97.4648" id="monitor_endpoint" rx="2.5" ry="2.5" style="stroke:#181818;stroke-width:0.5;" width="209" x="350.5" y="489.46"/><ellipse cx="412.25" cy="505.46" fill="#ADD1B2" rx="11" ry="11" style="stroke:#181818;stroke-width:1.0;"/><path d="M414.7231,511.6031 Q414.1421,511.9019 413.5029,512.0513 Q412.8638,512.2007 412.1582,512.2007 Q409.6514,512.2007 408.3315,510.5489 Q407.0117,508.897 407.0117,505.7759 Q407.0117,502.6465 408.3315,500.9947 Q409.6514,499.3428 412.1582,499.3428 Q412.8638,499.3428 413.5112,499.4922 Q414.1587,499.6416 414.7231,499.9405 L414.7231,502.6631 Q414.0923,502.0821 413.4988,501.8123 Q412.9053,501.5425 412.2744,501.5425 Q410.9297,501.5425 410.2449,502.6092 Q409.5601,503.6758 409.5601,505.7759 Q409.5601,507.8677 410.2449,508.9344 Q410.9297,510.001 412.2744,510.001 Q412.9053,510.001 413.4988,509.7312 Q414.0923,509.4615 414.7231,508.8804 Z " fill="#000000"/><text fill="#000000" font-family="sans-serif" font-size="14" lengthAdjust="spacing" textLength="77" x="432.75" y="510.751">monitoring</text><line style="stroke:#181818;stroke-width:0.5;" x1="351.5" x2="558.5" y1="521.46" y2="521.46"/><ellipse cx="361.5" cy="535.2041" fill="none" rx="3" ry="3" style="stroke:#038048;stroke-width:1.0;"/><text fill="#000000" font-family="sans-serif" font-size="14" lengthAdjust="spacing" textLength="132" x="370.5" y="538.9952">GET /patient-panel</text><ellipse cx="361.5" cy="551.6924" fill="none" rx="3" ry="3" style="stroke:#038048;stroke-width:1.0;"/><text fill="#000000" font-family="sans-serif" font-size="14" lengthAdjust="spacing" textLength="183" x="370.5" y="555.4834">POST /sharing-permission</text><ellipse cx="361.5" cy="568.1807" fill="none" rx="3" ry="3" style="stroke:#038048;stroke-width:1.0;"/><text fill="#000000" font-family="sans-serif" font-size="14" lengthAdjust="spacing" textLength="123" x="370.5" y="571.9717">GET /notifications</text><line style="stroke:#181818;stroke-width:0.5;" x1="351.5" x2="558.5" y1="578.9248" y2="578.9248"/></g><!--class get_current_user()--><g id="elem_get_current_user()"><rect codeLine="39" fill="#F1F1F1" height="48" id="get_current_user()" rx="2.5" ry="2.5" style="stroke:#181818;stroke-width:0.5;" width="158" x="900" y="286.73"/><ellipse cx="915" cy="302.73" fill="#ADD1B2" rx="11" ry="11" style="stroke:#181818;stroke-width:1.0;"/><path d="M917.4731,308.8731 Q916.8921,309.1719 916.2529,309.3213 Q915.6138,309.4707 914.9082,309.4707 Q912.4014,309.4707 911.0815,307.8189 Q909.7617,306.167 909.7617,303.0459 Q909.7617,299.9165 911.0815,298.2647 Q912.4014,296.6128 914.9082,296.6128 Q915.6138,296.6128 916.2612,296.7622 Q916.9087,296.9116 917.4731,297.2105 L917.4731,299.9331 Q916.8423,299.3521 916.2488,299.0823 Q915.6553,298.8125 915.0244,298.8125 Q913.6797,298.8125 912.9949,299.8792 Q912.3101,300.9458 912.3101,303.0459 Q912.3101,305.1377 912.9949,306.2044 Q913.6797,307.271 915.0244,307.271 Q915.6553,307.271 916.2488,307.0012 Q916.8423,306.7315 917.4731,306.1504 Z " fill="#000000"/><text fill="#000000" font-family="sans-serif" font-size="14" lengthAdjust="spacing" textLength="126" x="929" y="308.021">get_current_user()</text><line style="stroke:#181818;stroke-width:0.5;" x1="901" x2="1057" y1="318.73" y2="318.73"/><line style="stroke:#181818;stroke-width:0.5;" x1="901" x2="1057" y1="326.73" y2="326.73"/></g><!--class get_db()--><g id="elem_get_db()"><rect codeLine="40" fill="#F1F1F1" height="48" id="get_db()" rx="2.5" ry="2.5" style="stroke:#181818;stroke-width:0.5;" width="89" x="1092.5" y="286.73"/><ellipse cx="1107.5" cy="302.73" fill="#ADD1B2" rx="11" ry="11" style="stroke:#181818;stroke-width:1.0;"/><path d="M1109.9731,308.8731 Q1109.3921,309.1719 1108.7529,309.3213 Q1108.1138,309.4707 1107.4082,309.4707 Q1104.9014,309.4707 1103.5815,307.8189 Q1102.2617,306.167 1102.2617,303.0459 Q1102.2617,299.9165 1103.5815,298.2647 Q1104.9014,296.6128 1107.4082,296.6128 Q1108.1138,296.6128 1108.7612,296.7622 Q1109.4087,296.9116 1109.9731,297.2105 L1109.9731,299.9331 Q1109.3423,299.3521 1108.7488,299.0823 Q1108.1553,298.8125 1107.5244,298.8125 Q1106.1797,298.8125 1105.4949,299.8792 Q1104.8101,300.9458 1104.8101,303.0459 Q1104.8101,305.1377 1105.4949,306.2044 Q1106.1797,307.271 1107.5244,307.271 Q1108.1553,307.271 1108.7488,307.0012 Q1109.3423,306.7315 1109.9731,306.1504 Z " fill="#000000"/><text fill="#000000" font-family="sans-serif" font-size="14" lengthAdjust="spacing" textLength="57" x="1121.5" y="308.021">get_db()</text><line style="stroke:#181818;stroke-width:0.5;" x1="1093.5" x2="1180.5" y1="318.73" y2="318.73"/><line style="stroke:#181818;stroke-width:0.5;" x1="1093.5" x2="1180.5" y1="326.73" y2="326.73"/></g><!--class HealthDataService--><g id="elem_HealthDataService"><rect codeLine="46" fill="#F1F1F1" height="97.4648" id="HealthDataService" rx="2.5" ry="2.5" style="stroke:#181818;stroke-width:0.5;" width="165" x="1553.5" y="489.46"/><ellipse cx="1573" cy="505.46" fill="#ADD1B2" rx="11" ry="11" style="stroke:#181818;stroke-width:1.0;"/><path d="M1575.4731,511.6031 Q1574.8921,511.9019 1574.2529,512.0513 Q1573.6138,512.2007 1572.9082,512.2007 Q1570.4014,512.2007 1569.0815,510.5489 Q1567.7617,508.897 1567.7617,505.7759 Q1567.7617,502.6465 1569.0815,500.9947 Q1570.4014,499.3428 1572.9082,499.3428 Q1573.6138,499.3428 1574.2612,499.4922 Q1574.9087,499.6416 1575.4731,499.9405 L1575.4731,502.6631 Q1574.8423,502.0821 1574.2488,501.8123 Q1573.6553,501.5425 1573.0244,501.5425 Q1571.6797,501.5425 1570.9949,502.6092 Q1570.3101,503.6758 1570.3101,505.7759 Q1570.3101,507.8677 1570.9949,508.9344 Q1571.6797,510.001 1573.0244,510.001 Q1573.6553,510.001 1574.2488,509.7312 Q1574.8423,509.4615 1575.4731,508.8804 Z " fill="#000000"/><text fill="#000000" font-family="sans-serif" font-size="14" lengthAdjust="spacing" textLength="123" x="1588" y="510.751">HealthDataService</text><line style="stroke:#181818;stroke-width:0.5;" x1="1554.5" x2="1717.5" y1="521.46" y2="521.46"/><line style="stroke:#181818;stroke-width:0.5;" x1="1554.5" x2="1717.5" y1="529.46" y2="529.46"/><ellipse cx="1564.5" cy="543.2041" fill="#84BE84" rx="3" ry="3" style="stroke:#038048;stroke-width:1.0;"/><text fill="#000000" font-family="sans-serif" font-size="14" lengthAdjust="spacing" textLength="139" x="1573.5" y="546.9952">create_health_data()</text><ellipse cx="1564.5" cy="559.6924" fill="#84BE84" rx="3" ry="3" style="stroke:#038048;stroke-width:1.0;"/><text fill="#000000" font-family="sans-serif" font-size="14" lengthAdjust="spacing" textLength="136" x="1573.5" y="563.4834">get_health_history()</text><ellipse cx="1564.5" cy="576.1807" fill="#84BE84" rx="3" ry="3" style="stroke:#038048;stroke-width:1.0;"/><text fill="#000000" font-family="sans-serif" font-size="14" lengthAdjust="spacing" textLength="100" x="1573.5" y="579.9717">validate_data()</text></g><!--class PredictionService--><g id="elem_PredictionService"><rect codeLine="51" fill="#F1F1F1" height="97.4648" id="PredictionService" rx="2.5" ry="2.5" style="stroke:#181818;stroke-width:0.5;" width="174" x="1344" y="489.46"/><ellipse cx="1370.25" cy="505.46" fill="#ADD1B2" rx="11" ry="11" style="stroke:#181818;stroke-width:1.0;"/><path d="M1372.7231,511.6031 Q1372.1421,511.9019 1371.5029,512.0513 Q1370.8638,512.2007 1370.1582,512.2007 Q1367.6514,512.2007 1366.3315,510.5489 Q1365.0117,508.897 1365.0117,505.7759 Q1365.0117,502.6465 1366.3315,500.9947 Q1367.6514,499.3428 1370.1582,499.3428 Q1370.8638,499.3428 1371.5112,499.4922 Q1372.1587,499.6416 1372.7231,499.9405 L1372.7231,502.6631 Q1372.0923,502.0821 1371.4988,501.8123 Q1370.9053,501.5425 1370.2744,501.5425 Q1368.9297,501.5425 1368.2449,502.6092 Q1367.5601,503.6758 1367.5601,505.7759 Q1367.5601,507.8677 1368.2449,508.9344 Q1368.9297,510.001 1370.2744,510.001 Q1370.9053,510.001 1371.4988,509.7312 Q1372.0923,509.4615 1372.7231,508.8804 Z " fill="#000000"/><text fill="#000000" font-family="sans-serif" font-size="14" lengthAdjust="spacing" textLength="117" x="1386.75" y="510.751">PredictionService</text><line style="stroke:#181818;stroke-width:0.5;" x1="1345" x2="1517" y1="521.46" y2="521.46"/><line style="stroke:#181818;stroke-width:0.5;" x1="1345" x2="1517" y1="529.46" y2="529.46"/><ellipse cx="1355" cy="543.2041" fill="#84BE84" rx="3" ry="3" style="stroke:#038048;stroke-width:1.0;"/><text fill="#000000" font-family="sans-serif" font-size="14" lengthAdjust="spacing" textLength="148" x="1364" y="546.9952">generate_prediction()</text><ellipse cx="1355" cy="559.6924" fill="#84BE84" rx="3" ry="3" style="stroke:#038048;stroke-width:1.0;"/><text fill="#000000" font-family="sans-serif" font-size="14" lengthAdjust="spacing" textLength="102" x="1364" y="563.4834">get_risk_level()</text><ellipse cx="1355" cy="576.1807" fill="#84BE84" rx="3" ry="3" style="stroke:#038048;stroke-width:1.0;"/><text fill="#000000" font-family="sans-serif" font-size="14" lengthAdjust="spacing" textLength="148" x="1364" y="579.9717">analyze_risk_factors()</text></g><!--class AnalysisService--><g id="elem_AnalysisService"><rect codeLine="56" fill="#F1F1F1" height="97.4648" id="AnalysisService" rx="2.5" ry="2.5" style="stroke:#181818;stroke-width:0.5;" width="171" x="1753.5" y="489.46"/><ellipse cx="1784.25" cy="505.46" fill="#ADD1B2" rx="11" ry="11" style="stroke:#181818;stroke-width:1.0;"/><path d="M1786.7231,511.6031 Q1786.1421,511.9019 1785.5029,512.0513 Q1784.8638,512.2007 1784.1582,512.2007 Q1781.6514,512.2007 1780.3315,510.5489 Q1779.0117,508.897 1779.0117,505.7759 Q1779.0117,502.6465 1780.3315,500.9947 Q1781.6514,499.3428 1784.1582,499.3428 Q1784.8638,499.3428 1785.5112,499.4922 Q1786.1587,499.6416 1786.7231,499.9405 L1786.7231,502.6631 Q1786.0923,502.0821 1785.4988,501.8123 Q1784.9053,501.5425 1784.2744,501.5425 Q1782.9297,501.5425 1782.2449,502.6092 Q1781.5601,503.6758 1781.5601,505.7759 Q1781.5601,507.8677 1782.2449,508.9344 Q1782.9297,510.001 1784.2744,510.001 Q1784.9053,510.001 1785.4988,509.7312 Q1786.0923,509.4615 1786.7231,508.8804 Z " fill="#000000"/><text fill="#000000" font-family="sans-serif" font-size="14" lengthAdjust="spacing" textLength="104" x="1801.75" y="510.751">AnalysisService</text><line style="stroke:#181818;stroke-width:0.5;" x1="1754.5" x2="1923.5" y1="521.46" y2="521.46"/><line style="stroke:#181818;stroke-width:0.5;" x1="1754.5" x2="1923.5" y1="529.46" y2="529.46"/><ellipse cx="1764.5" cy="543.2041" fill="#84BE84" rx="3" ry="3" style="stroke:#038048;stroke-width:1.0;"/><text fill="#000000" font-family="sans-serif" font-size="14" lengthAdjust="spacing" textLength="144" x="1773.5" y="546.9952">run_whatif_analysis()</text><ellipse cx="1764.5" cy="559.6924" fill="#84BE84" rx="3" ry="3" style="stroke:#038048;stroke-width:1.0;"/><text fill="#000000" font-family="sans-serif" font-size="14" lengthAdjust="spacing" textLength="145" x="1773.5" y="563.4834">calculate_percentile()</text><ellipse cx="1764.5" cy="576.1807" fill="#84BE84" rx="3" ry="3" style="stroke:#038048;stroke-width:1.0;"/><text fill="#000000" font-family="sans-serif" font-size="14" lengthAdjust="spacing" textLength="109" x="1773.5" y="579.9717">forecast_trend()</text></g><!--class AuthService--><g id="elem_AuthService"><rect codeLine="61" fill="#F1F1F1" height="97.4648" id="AuthService" rx="2.5" ry="2.5" style="stroke:#181818;stroke-width:0.5;" width="158" x="1959" y="489.46"/><ellipse cx="1994.25" cy="505.46" fill="#ADD1B2" rx="11" ry="11" style="stroke:#181818;stroke-width:1.0;"/><path d="M1996.7231,511.6031 Q1996.1421,511.9019 1995.5029,512.0513 Q1994.8638,512.2007 1994.1582,512.2007 Q1991.6514,512.2007 1990.3315,510.5489 Q1989.0117,508.897 1989.0117,505.7759 Q1989.0117,502.6465 1990.3315,500.9947 Q1991.6514,499.3428 1994.1582,499.3428 Q1994.8638,499.3428 1995.5112,499.4922 Q1996.1587,499.6416 1996.7231,499.9405 L1996.7231,502.6631 Q1996.0923,502.0821 1995.4988,501.8123 Q1994.9053,501.5425 1994.2744,501.5425 Q1992.9297,501.5425 1992.2449,502.6092 Q1991.5601,503.6758 1991.5601,505.7759 Q1991.5601,507.8677 1992.2449,508.9344 Q1992.9297,510.001 1994.2744,510.001 Q1994.9053,510.001 1995.4988,509.7312 Q1996.0923,509.4615 1996.7231,508.8804 Z " fill="#000000"/><text fill="#000000" font-family="sans-serif" font-size="14" lengthAdjust="spacing" textLength="81" x="2012.75" y="510.751">AuthService</text><line style="stroke:#181818;stroke-width:0.5;" x1="1960" x2="2116" y1="521.46" y2="521.46"/><line style="stroke:#181818;stroke-width:0.5;" x1="1960" x2="2116" y1="529.46" y2="529.46"/><ellipse cx="1970" cy="543.2041" fill="#84BE84" rx="3" ry="3" style="stroke:#038048;stroke-width:1.0;"/><text fill="#000000" font-family="sans-serif" font-size="14" lengthAdjust="spacing" textLength="132" x="1979" y="546.9952">authenticate_user()</text><ellipse cx="1970" cy="559.6924" fill="#84BE84" rx="3" ry="3" style="stroke:#038048;stroke-width:1.0;"/><text fill="#000000" font-family="sans-serif" font-size="14" lengthAdjust="spacing" textLength="89" x="1979" y="563.4834">create_user()</text><ellipse cx="1970" cy="576.1807" fill="#84BE84" rx="3" ry="3" style="stroke:#038048;stroke-width:1.0;"/><text fill="#000000" font-family="sans-serif" font-size="14" lengthAdjust="spacing" textLength="93" x="1979" y="579.9717">verify_token()</text></g><!--class NotificationService--><g id="elem_NotificationService"><rect codeLine="66" fill="#F1F1F1" height="97.4648" id="NotificationService" rx="2.5" ry="2.5" style="stroke:#181818;stroke-width:0.5;" width="159" x="2151.5" y="489.46"/><ellipse cx="2166.5" cy="505.46" fill="#ADD1B2" rx="11" ry="11" style="stroke:#181818;stroke-width:1.0;"/><path d="M2168.9731,511.6031 Q2168.3921,511.9019 2167.7529,512.0513 Q2167.1138,512.2007 2166.4082,512.2007 Q2163.9014,512.2007 2162.5815,510.5489 Q2161.2617,508.897 2161.2617,505.7759 Q2161.2617,502.6465 2162.5815,500.9947 Q2163.9014,499.3428 2166.4082,499.3428 Q2167.1138,499.3428 2167.7612,499.4922 Q2168.4087,499.6416 2168.9731,499.9405 L2168.9731,502.6631 Q2168.3423,502.0821 2167.7488,501.8123 Q2167.1553,501.5425 2166.5244,501.5425 Q2165.1797,501.5425 2164.4949,502.6092 Q2163.8101,503.6758 2163.8101,505.7759 Q2163.8101,507.8677 2164.4949,508.9344 Q2165.1797,510.001 2166.5244,510.001 Q2167.1553,510.001 2167.7488,509.7312 Q2168.3423,509.4615 2168.9731,508.8804 Z " fill="#000000"/><text fill="#000000" font-family="sans-serif" font-size="14" lengthAdjust="spacing" textLength="127" x="2180.5" y="510.751">NotificationService</text><line style="stroke:#181818;stroke-width:0.5;" x1="2152.5" x2="2309.5" y1="521.46" y2="521.46"/><line style="stroke:#181818;stroke-width:0.5;" x1="2152.5" x2="2309.5" y1="529.46" y2="529.46"/><ellipse cx="2162.5" cy="543.2041" fill="#84BE84" rx="3" ry="3" style="stroke:#038048;stroke-width:1.0;"/><text fill="#000000" font-family="sans-serif" font-size="14" lengthAdjust="spacing" textLength="81" x="2171.5" y="546.9952">send_alert()</text><ellipse cx="2162.5" cy="559.6924" fill="#84BE84" rx="3" ry="3" style="stroke:#038048;stroke-width:1.0;"/><text fill="#000000" font-family="sans-serif" font-size="14" lengthAdjust="spacing" textLength="113" x="2171.5" y="563.4834">send_reminder()</text><ellipse cx="2162.5" cy="576.1807" fill="#84BE84" rx="3" ry="3" style="stroke:#038048;stroke-width:1.0;"/><text fill="#000000" font-family="sans-serif" font-size="14" lengthAdjust="spacing" textLength="123" x="2171.5" y="579.9717">configure_policy()</text></g><!--class UserRepository--><g id="elem_UserRepository"><rect codeLine="74" fill="#F1F1F1" height="97.4648" id="UserRepository" rx="2.5" ry="2.5" style="stroke:#181818;stroke-width:0.5;" width="136" x="1360" y="815.41"/><ellipse cx="1375" cy="831.41" fill="#ADD1B2" rx="11" ry="11" style="stroke:#181818;stroke-width:1.0;"/><path d="M1377.4731,837.5531 Q1376.8921,837.8519 1376.2529,838.0013 Q1375.6138,838.1507 1374.9082,838.1507 Q1372.4014,838.1507 1371.0815,836.4989 Q1369.7617,834.847 1369.7617,831.7259 Q1369.7617,828.5965 1371.0815,826.9447 Q1372.4014,825.2928 1374.9082,825.2928 Q1375.6138,825.2928 1376.2612,825.4422 Q1376.9087,825.5916 1377.4731,825.8905 L1377.4731,828.6131 Q1376.8423,828.0321 1376.2488,827.7623 Q1375.6553,827.4925 1375.0244,827.4925 Q1373.6797,827.4925 1372.9949,828.5592 Q1372.3101,829.6258 1372.3101,831.7259 Q1372.3101,833.8177 1372.9949,834.8844 Q1373.6797,835.951 1375.0244,835.951 Q1375.6553,835.951 1376.2488,835.6812 Q1376.8423,835.4115 1377.4731,834.8304 Z " fill="#000000"/><text fill="#000000" font-family="sans-serif" font-size="14" lengthAdjust="spacing" textLength="104" x="1389" y="836.701">UserRepository</text><line style="stroke:#181818;stroke-width:0.5;" x1="1361" x2="1495" y1="847.41" y2="847.41"/><line style="stroke:#181818;stroke-width:0.5;" x1="1361" x2="1495" y1="855.41" y2="855.41"/><ellipse cx="1371" cy="869.1541" fill="#84BE84" rx="3" ry="3" style="stroke:#038048;stroke-width:1.0;"/><text fill="#000000" font-family="sans-serif" font-size="14" lengthAdjust="spacing" textLength="52" x="1380" y="872.9452">create()</text><ellipse cx="1371" cy="885.6424" fill="#84BE84" rx="3" ry="3" style="stroke:#038048;stroke-width:1.0;"/><text fill="#000000" font-family="sans-serif" font-size="14" lengthAdjust="spacing" textLength="104" x="1380" y="889.4334">find_by_email()</text><ellipse cx="1371" cy="902.1307" fill="#84BE84" rx="3" ry="3" style="stroke:#038048;stroke-width:1.0;"/><text fill="#000000" font-family="sans-serif" font-size="14" lengthAdjust="spacing" textLength="58" x="1380" y="905.9217">update()</text></g><!--class HealthDataRepository--><g id="elem_HealthDataRepository"><rect codeLine="79" fill="#F1F1F1" height="97.4648" id="HealthDataRepository" rx="2.5" ry="2.5" style="stroke:#181818;stroke-width:0.5;" width="180" x="1763" y="815.41"/><ellipse cx="1778" cy="831.41" fill="#ADD1B2" rx="11" ry="11" style="stroke:#181818;stroke-width:1.0;"/><path d="M1780.4731,837.5531 Q1779.8921,837.8519 1779.2529,838.0013 Q1778.6138,838.1507 1777.9082,838.1507 Q1775.4014,838.1507 1774.0815,836.4989 Q1772.7617,834.847 1772.7617,831.7259 Q1772.7617,828.5965 1774.0815,826.9447 Q1775.4014,825.2928 1777.9082,825.2928 Q1778.6138,825.2928 1779.2612,825.4422 Q1779.9087,825.5916 1780.4731,825.8905 L1780.4731,828.6131 Q1779.8423,828.0321 1779.2488,827.7623 Q1778.6553,827.4925 1778.0244,827.4925 Q1776.6797,827.4925 1775.9949,828.5592 Q1775.3101,829.6258 1775.3101,831.7259 Q1775.3101,833.8177 1775.9949,834.8844 Q1776.6797,835.951 1778.0244,835.951 Q1778.6553,835.951 1779.2488,835.6812 Q1779.8423,835.4115 1780.4731,834.8304 Z " fill="#000000"/><text fill="#000000" font-family="sans-serif" font-size="14" lengthAdjust="spacing" textLength="148" x="1792" y="836.701">HealthDataRepository</text><line style="stroke:#181818;stroke-width:0.5;" x1="1764" x2="1942" y1="847.41" y2="847.41"/><line style="stroke:#181818;stroke-width:0.5;" x1="1764" x2="1942" y1="855.41" y2="855.41"/><ellipse cx="1774" cy="869.1541" fill="#84BE84" rx="3" ry="3" style="stroke:#038048;stroke-width:1.0;"/><text fill="#000000" font-family="sans-serif" font-size="14" lengthAdjust="spacing" textLength="52" x="1783" y="872.9452">create()</text><ellipse cx="1774" cy="885.6424" fill="#84BE84" rx="3" ry="3" style="stroke:#038048;stroke-width:1.0;"/><text fill="#000000" font-family="sans-serif" font-size="14" lengthAdjust="spacing" textLength="115" x="1783" y="889.4334">find_by_patient()</text><ellipse cx="1774" cy="902.1307" fill="#84BE84" rx="3" ry="3" style="stroke:#038048;stroke-width:1.0;"/><text fill="#000000" font-family="sans-serif" font-size="14" lengthAdjust="spacing" textLength="86" x="1783" y="905.9217">get_history()</text></g><!--class PredictionRepository--><g id="elem_PredictionRepository"><rect codeLine="84" fill="#F1F1F1" height="97.4648" id="PredictionRepository" rx="2.5" ry="2.5" style="stroke:#181818;stroke-width:0.5;" width="197" x="1531.5" y="815.41"/><ellipse cx="1556.85" cy="831.41" fill="#ADD1B2" rx="11" ry="11" style="stroke:#181818;stroke-width:1.0;"/><path d="M1559.3231,837.5531 Q1558.7421,837.8519 1558.1029,838.0013 Q1557.4638,838.1507 1556.7582,838.1507 Q1554.2514,838.1507 1552.9315,836.4989 Q1551.6117,834.847 1551.6117,831.7259 Q1551.6117,828.5965 1552.9315,826.9447 Q1554.2514,825.2928 1556.7582,825.2928 Q1557.4638,825.2928 1558.1112,825.4422 Q1558.7587,825.5916 1559.3231,825.8905 L1559.3231,828.6131 Q1558.6923,828.0321 1558.0988,827.7623 Q1557.5053,827.4925 1556.8744,827.4925 Q1555.5297,827.4925 1554.8449,828.5592 Q1554.1601,829.6258 1554.1601,831.7259 Q1554.1601,833.8177 1554.8449,834.8844 Q1555.5297,835.951 1556.8744,835.951 Q1557.5053,835.951 1558.0988,835.6812 Q1558.6923,835.4115 1559.3231,834.8304 Z " fill="#000000"/><text fill="#000000" font-family="sans-serif" font-size="14" lengthAdjust="spacing" textLength="142" x="1573.15" y="836.701">PredictionRepository</text><line style="stroke:#181818;stroke-width:0.5;" x1="1532.5" x2="1727.5" y1="847.41" y2="847.41"/><line style="stroke:#181818;stroke-width:0.5;" x1="1532.5" x2="1727.5" y1="855.41" y2="855.41"/><ellipse cx="1542.5" cy="869.1541" fill="#84BE84" rx="3" ry="3" style="stroke:#038048;stroke-width:1.0;"/><text fill="#000000" font-family="sans-serif" font-size="14" lengthAdjust="spacing" textLength="52" x="1551.5" y="872.9452">create()</text><ellipse cx="1542.5" cy="885.6424" fill="#84BE84" rx="3" ry="3" style="stroke:#038048;stroke-width:1.0;"/><text fill="#000000" font-family="sans-serif" font-size="14" lengthAdjust="spacing" textLength="80" x="1551.5" y="889.4334">find_by_id()</text><ellipse cx="1542.5" cy="902.1307" fill="#84BE84" rx="3" ry="3" style="stroke:#038048;stroke-width:1.0;"/><text fill="#000000" font-family="sans-serif" font-size="14" lengthAdjust="spacing" textLength="171" x="1551.5" y="905.9217">get_patient_predictions()</text></g><!--class SharingPermissionRepository--><g id="elem_SharingPermissionRepository"><rect codeLine="89" fill="#F1F1F1" height="97.4648" id="SharingPermissionRepository" rx="2.5" ry="2.5" style="stroke:#181818;stroke-width:0.5;" width="233" x="1977.5" y="815.41"/><ellipse cx="1992.5" cy="831.41" fill="#ADD1B2" rx="11" ry="11" style="stroke:#181818;stroke-width:1.0;"/><path d="M1994.9731,837.5531 Q1994.3921,837.8519 1993.7529,838.0013 Q1993.1138,838.1507 1992.4082,838.1507 Q1989.9014,838.1507 1988.5815,836.4989 Q1987.2617,834.847 1987.2617,831.7259 Q1987.2617,828.5965 1988.5815,826.9447 Q1989.9014,825.2928 1992.4082,825.2928 Q1993.1138,825.2928 1993.7612,825.4422 Q1994.4087,825.5916 1994.9731,825.8905 L1994.9731,828.6131 Q1994.3423,828.0321 1993.7488,827.7623 Q1993.1553,827.4925 1992.5244,827.4925 Q1991.1797,827.4925 1990.4949,828.5592 Q1989.8101,829.6258 1989.8101,831.7259 Q1989.8101,833.8177 1990.4949,834.8844 Q1991.1797,835.951 1992.5244,835.951 Q1993.1553,835.951 1993.7488,835.6812 Q1994.3423,835.4115 1994.9731,834.8304 Z " fill="#000000"/><text fill="#000000" font-family="sans-serif" font-size="14" lengthAdjust="spacing" textLength="201" x="2006.5" y="836.701">SharingPermissionRepository</text><line style="stroke:#181818;stroke-width:0.5;" x1="1978.5" x2="2209.5" y1="847.41" y2="847.41"/><line style="stroke:#181818;stroke-width:0.5;" x1="1978.5" x2="2209.5" y1="855.41" y2="855.41"/><ellipse cx="1988.5" cy="869.1541" fill="#84BE84" rx="3" ry="3" style="stroke:#038048;stroke-width:1.0;"/><text fill="#000000" font-family="sans-serif" font-size="14" lengthAdjust="spacing" textLength="52" x="1997.5" y="872.9452">create()</text><ellipse cx="1988.5" cy="885.6424" fill="#84BE84" rx="3" ry="3" style="stroke:#038048;stroke-width:1.0;"/><text fill="#000000" font-family="sans-serif" font-size="14" lengthAdjust="spacing" textLength="115" x="1997.5" y="889.4334">find_by_patient()</text><ellipse cx="1988.5" cy="902.1307" fill="#84BE84" rx="3" ry="3" style="stroke:#038048;stroke-width:1.0;"/><text fill="#000000" font-family="sans-serif" font-size="14" lengthAdjust="spacing" textLength="56" x="1997.5" y="905.9217">revoke()</text></g><!--class User--><g id="elem_User"><rect codeLine="97" fill="#F1F1F1" height="113.9531" id="User" rx="2.5" ry="2.5" style="stroke:#181818;stroke-width:0.5;" width="122" x="1478" y="1060.88"/><ellipse cx="1519.55" cy="1076.88" fill="#ADD1B2" rx="11" ry="11" style="stroke:#181818;stroke-width:1.0;"/><path d="M1522.0231,1083.0231 Q1521.4421,1083.3219 1520.8029,1083.4713 Q1520.1638,1083.6207 1519.4582,1083.6207 Q1516.9514,1083.6207 1515.6315,1081.9689 Q1514.3117,1080.317 1514.3117,1077.1959 Q1514.3117,1074.0665 1515.6315,1072.4147 Q1516.9514,1070.7628 1519.4582,1070.7628 Q1520.1638,1070.7628 1520.8112,1070.9122 Q1521.4587,1071.0616 1522.0231,1071.3605 L1522.0231,1074.0831 Q1521.3923,1073.5021 1520.7988,1073.2323 Q1520.2053,1072.9625 1519.5744,1072.9625 Q1518.2297,1072.9625 1517.5449,1074.0292 Q1516.8601,1075.0958 1516.8601,1077.1959 Q1516.8601,1079.2877 1517.5449,1080.3544 Q1518.2297,1081.421 1519.5744,1081.421 Q1520.2053,1081.421 1520.7988,1081.1512 Q1521.3923,1080.8815 1522.0231,1080.3004 Z " fill="#000000"/><text fill="#000000" font-family="sans-serif" font-size="14" lengthAdjust="spacing" textLength="31" x="1539.45" y="1082.171">User</text><line style="stroke:#181818;stroke-width:0.5;" x1="1479" x2="1599" y1="1092.88" y2="1092.88"/><ellipse cx="1489" cy="1106.6241" fill="none" rx="3" ry="3" style="stroke:#038048;stroke-width:1.0;"/><text fill="#000000" font-family="sans-serif" font-size="14" lengthAdjust="spacing" textLength="76" x="1498" y="1110.4152">user_id: str</text><ellipse cx="1489" cy="1123.1124" fill="none" rx="3" ry="3" style="stroke:#038048;stroke-width:1.0;"/><text fill="#000000" font-family="sans-serif" font-size="14" lengthAdjust="spacing" textLength="63" x="1498" y="1126.9034">email: str</text><ellipse cx="1489" cy="1139.6007" fill="none" rx="3" ry="3" style="stroke:#038048;stroke-width:1.0;"/><text fill="#000000" font-family="sans-serif" font-size="14" lengthAdjust="spacing" textLength="64" x="1498" y="1143.3917">name: str</text><ellipse cx="1489" cy="1156.089" fill="none" rx="3" ry="3" style="stroke:#038048;stroke-width:1.0;"/><text fill="#000000" font-family="sans-serif" font-size="14" lengthAdjust="spacing" textLength="96" x="1498" y="1159.88">role: UserRole</text><line style="stroke:#181818;stroke-width:0.5;" x1="1479" x2="1599" y1="1166.8331" y2="1166.8331"/></g><!--class Patient--><g id="elem_Patient"><rect codeLine="103" fill="#F1F1F1" height="97.4648" id="Patient" rx="2.5" ry="2.5" style="stroke:#181818;stroke-width:0.5;" width="164" x="1647" y="1069.12"/><ellipse cx="1701.25" cy="1085.12" fill="#ADD1B2" rx="11" ry="11" style="stroke:#181818;stroke-width:1.0;"/><path d="M1703.7231,1091.2631 Q1703.1421,1091.5619 1702.5029,1091.7113 Q1701.8638,1091.8607 1701.1582,1091.8607 Q1698.6514,1091.8607 1697.3315,1090.2089 Q1696.0117,1088.557 1696.0117,1085.4359 Q1696.0117,1082.3065 1697.3315,1080.6547 Q1698.6514,1079.0028 1701.1582,1079.0028 Q1701.8638,1079.0028 1702.5112,1079.1522 Q1703.1587,1079.3016 1703.7231,1079.6005 L1703.7231,1082.3231 Q1703.0923,1081.7421 1702.4988,1081.4723 Q1701.9053,1081.2025 1701.2744,1081.2025 Q1699.9297,1081.2025 1699.2449,1082.2692 Q1698.5601,1083.3358 1698.5601,1085.4359 Q1698.5601,1087.5277 1699.2449,1088.5944 Q1699.9297,1089.661 1701.2744,1089.661 Q1701.9053,1089.661 1702.4988,1089.3912 Q1703.0923,1089.1215 1703.7231,1088.5404 Z " fill="#000000"/><text fill="#000000" font-family="sans-serif" font-size="14" lengthAdjust="spacing" textLength="47" x="1721.75" y="1090.411">Patient</text><line style="stroke:#181818;stroke-width:0.5;" x1="1648" x2="1810" y1="1101.12" y2="1101.12"/><ellipse cx="1658" cy="1114.8641" fill="none" rx="3" ry="3" style="stroke:#038048;stroke-width:1.0;"/><text fill="#000000" font-family="sans-serif" font-size="14" lengthAdjust="spacing" textLength="51" x="1667" y="1118.6552">age: int</text><ellipse cx="1658" cy="1131.3524" fill="none" rx="3" ry="3" style="stroke:#038048;stroke-width:1.0;"/><text fill="#000000" font-family="sans-serif" font-size="14" lengthAdjust="spacing" textLength="107" x="1667" y="1135.1434">gender: Gender</text><ellipse cx="1658" cy="1147.8407" fill="none" rx="3" ry="3" style="stroke:#038048;stroke-width:1.0;"/><text fill="#000000" font-family="sans-serif" font-size="14" lengthAdjust="spacing" textLength="138" x="1667" y="1151.6317">medical_history: List</text><line style="stroke:#181818;stroke-width:0.5;" x1="1648" x2="1810" y1="1158.5848" y2="1158.5848"/></g><!--class HealthData--><g id="elem_HealthData"><rect codeLine="108" fill="#F1F1F1" height="113.9531" id="HealthData" rx="2.5" ry="2.5" style="stroke:#181818;stroke-width:0.5;" width="159" x="1450.5" y="1245.59"/><ellipse cx="1488.9" cy="1261.59" fill="#ADD1B2" rx="11" ry="11" style="stroke:#181818;stroke-width:1.0;"/><path d="M1491.3731,1267.7331 Q1490.7921,1268.0319 1490.1529,1268.1813 Q1489.5138,1268.3307 1488.8082,1268.3307 Q1486.3014,1268.3307 1484.9815,1266.6789 Q1483.6617,1265.027 1483.6617,1261.9059 Q1483.6617,1258.7765 1484.9815,1257.1247 Q1486.3014,1255.4728 1488.8082,1255.4728 Q1489.5138,1255.4728 1490.1612,1255.6222 Q1490.8087,1255.7716 1491.3731,1256.0705 L1491.3731,1258.7931 Q1490.7423,1258.2121 1490.1488,1257.9423 Q1489.5553,1257.6725 1488.9244,1257.6725 Q1487.5797,1257.6725 1486.8949,1258.7392 Q1486.2101,1259.8058 1486.2101,1261.9059 Q1486.2101,1263.9977 1486.8949,1265.0644 Q1487.5797,1266.131 1488.9244,1266.131 Q1489.5553,1266.131 1490.1488,1265.8612 Q1490.7423,1265.5915 1491.3731,1265.0104 Z " fill="#000000"/><text fill="#000000" font-family="sans-serif" font-size="14" lengthAdjust="spacing" textLength="75" x="1508.1" y="1266.881">HealthData</text><line style="stroke:#181818;stroke-width:0.5;" x1="1451.5" x2="1608.5" y1="1277.59" y2="1277.59"/><ellipse cx="1461.5" cy="1291.3341" fill="none" rx="3" ry="3" style="stroke:#038048;stroke-width:1.0;"/><text fill="#000000" font-family="sans-serif" font-size="14" lengthAdjust="spacing" textLength="76" x="1470.5" y="1295.1252">data_id: str</text><ellipse cx="1461.5" cy="1307.8224" fill="none" rx="3" ry="3" style="stroke:#038048;stroke-width:1.0;"/><text fill="#000000" font-family="sans-serif" font-size="14" lengthAdjust="spacing" textLength="133" x="1470.5" y="1311.6134">blood_pressure: int</text><ellipse cx="1461.5" cy="1324.3107" fill="none" rx="3" ry="3" style="stroke:#038048;stroke-width:1.0;"/><text fill="#000000" font-family="sans-serif" font-size="14" lengthAdjust="spacing" textLength="125" x="1470.5" y="1328.1017">blood_sugar: float</text><ellipse cx="1461.5" cy="1340.799" fill="none" rx="3" ry="3" style="stroke:#038048;stroke-width:1.0;"/><text fill="#000000" font-family="sans-serif" font-size="14" lengthAdjust="spacing" textLength="65" x="1470.5" y="1344.59">bmi: float</text><line style="stroke:#181818;stroke-width:0.5;" x1="1451.5" x2="1608.5" y1="1351.5431" y2="1351.5431"/></g><!--class RiskPrediction--><g id="elem_RiskPrediction"><rect codeLine="114" fill="#F1F1F1" height="113.9531" id="RiskPrediction" rx="2.5" ry="2.5" style="stroke:#181818;stroke-width:0.5;" width="181" x="1644.5" y="1245.59"/><ellipse cx="1682.9" cy="1261.59" fill="#ADD1B2" rx="11" ry="11" style="stroke:#181818;stroke-width:1.0;"/><path d="M1685.3731,1267.7331 Q1684.7921,1268.0319 1684.1529,1268.1813 Q1683.5138,1268.3307 1682.8082,1268.3307 Q1680.3014,1268.3307 1678.9815,1266.6789 Q1677.6617,1265.027 1677.6617,1261.9059 Q1677.6617,1258.7765 1678.9815,1257.1247 Q1680.3014,1255.4728 1682.8082,1255.4728 Q1683.5138,1255.4728 1684.1612,1255.6222 Q1684.8087,1255.7716 1685.3731,1256.0705 L1685.3731,1258.7931 Q1684.7423,1258.2121 1684.1488,1257.9423 Q1683.5553,1257.6725 1682.9244,1257.6725 Q1681.5797,1257.6725 1680.8949,1258.7392 Q1680.2101,1259.8058 1680.2101,1261.9059 Q1680.2101,1263.9977 1680.8949,1265.0644 Q1681.5797,1266.131 1682.9244,1266.131 Q1683.5553,1266.131 1684.1488,1265.8612 Q1684.7423,1265.5915 1685.3731,1265.0104 Z " fill="#000000"/><text fill="#000000" font-family="sans-serif" font-size="14" lengthAdjust="spacing" textLength="97" x="1702.1" y="1266.881">RiskPrediction</text><line style="stroke:#181818;stroke-width:0.5;" x1="1645.5" x2="1824.5" y1="1277.59" y2="1277.59"/><ellipse cx="1655.5" cy="1291.3341" fill="none" rx="3" ry="3" style="stroke:#038048;stroke-width:1.0;"/><text fill="#000000" font-family="sans-serif" font-size="14" lengthAdjust="spacing" textLength="116" x="1664.5" y="1295.1252">prediction_id: str</text><ellipse cx="1655.5" cy="1307.8224" fill="none" rx="3" ry="3" style="stroke:#038048;stroke-width:1.0;"/><text fill="#000000" font-family="sans-serif" font-size="14" lengthAdjust="spacing" textLength="145" x="1664.5" y="1311.6134">risk_probability: float</text><ellipse cx="1655.5" cy="1324.3107" fill="none" rx="3" ry="3" style="stroke:#038048;stroke-width:1.0;"/><text fill="#000000" font-family="sans-serif" font-size="14" lengthAdjust="spacing" textLength="133" x="1664.5" y="1328.1017">risk_level: RiskLevel</text><ellipse cx="1655.5" cy="1340.799" fill="none" rx="3" ry="3" style="stroke:#038048;stroke-width:1.0;"/><text fill="#000000" font-family="sans-serif" font-size="14" lengthAdjust="spacing" textLength="155" x="1664.5" y="1344.59">recommendations: List</text><line style="stroke:#181818;stroke-width:0.5;" x1="1645.5" x2="1824.5" y1="1351.5431" y2="1351.5431"/></g><!--class UserSchema--><g id="elem_UserSchema"><rect codeLine="123" fill="#F1F1F1" height="80.9766" id="UserSchema" rx="2.5" ry="2.5" style="stroke:#181818;stroke-width:0.5;" width="127" x="1922.5" y="1077.37"/><ellipse cx="1942.45" cy="1093.37" fill="#ADD1B2" rx="11" ry="11" style="stroke:#181818;stroke-width:1.0;"/><path d="M1944.9231,1099.5131 Q1944.3421,1099.8119 1943.7029,1099.9613 Q1943.0638,1100.1107 1942.3582,1100.1107 Q1939.8514,1100.1107 1938.5315,1098.4589 Q1937.2117,1096.807 1937.2117,1093.6859 Q1937.2117,1090.5565 1938.5315,1088.9047 Q1939.8514,1087.2528 1942.3582,1087.2528 Q1943.0638,1087.2528 1943.7112,1087.4022 Q1944.3587,1087.5516 1944.9231,1087.8505 L1944.9231,1090.5731 Q1944.2923,1089.9921 1943.6988,1089.7223 Q1943.1053,1089.4525 1942.4744,1089.4525 Q1941.1297,1089.4525 1940.4449,1090.5192 Q1939.7601,1091.5858 1939.7601,1093.6859 Q1939.7601,1095.7777 1940.4449,1096.8444 Q1941.1297,1097.911 1942.4744,1097.911 Q1943.1053,1097.911 1943.6988,1097.6412 Q1944.2923,1097.3715 1944.9231,1096.7904 Z " fill="#000000"/><text fill="#000000" font-family="sans-serif" font-size="14" lengthAdjust="spacing" textLength="84" x="1957.55" y="1098.661">UserSchema</text><line style="stroke:#181818;stroke-width:0.5;" x1="1923.5" x2="2048.5" y1="1109.37" y2="1109.37"/><ellipse cx="1933.5" cy="1123.1141" fill="none" rx="3" ry="3" style="stroke:#038048;stroke-width:1.0;"/><text fill="#000000" font-family="sans-serif" font-size="14" lengthAdjust="spacing" textLength="101" x="1942.5" y="1126.9052">email: EmailStr</text><ellipse cx="1933.5" cy="1139.6024" fill="none" rx="3" ry="3" style="stroke:#038048;stroke-width:1.0;"/><text fill="#000000" font-family="sans-serif" font-size="14" lengthAdjust="spacing" textLength="92" x="1942.5" y="1143.3934">password: str</text><line style="stroke:#181818;stroke-width:0.5;" x1="1923.5" x2="2048.5" y1="1150.3466" y2="1150.3466"/></g><!--class HealthDataSchema--><g id="elem_HealthDataSchema"><rect codeLine="127" fill="#F1F1F1" height="80.9766" id="HealthDataSchema" rx="2.5" ry="2.5" style="stroke:#181818;stroke-width:0.5;" width="216" x="2085" y="1077.37"/><ellipse cx="2125.2" cy="1093.37" fill="#ADD1B2" rx="11" ry="11" style="stroke:#181818;stroke-width:1.0;"/><path d="M2127.6731,1099.5131 Q2127.0921,1099.8119 2126.4529,1099.9613 Q2125.8138,1100.1107 2125.1082,1100.1107 Q2122.6014,1100.1107 2121.2815,1098.4589 Q2119.9617,1096.807 2119.9617,1093.6859 Q2119.9617,1090.5565 2121.2815,1088.9047 Q2122.6014,1087.2528 2125.1082,1087.2528 Q2125.8138,1087.2528 2126.4612,1087.4022 Q2127.1087,1087.5516 2127.6731,1087.8505 L2127.6731,1090.5731 Q2127.0423,1089.9921 2126.4488,1089.7223 Q2125.8553,1089.4525 2125.2244,1089.4525 Q2123.8797,1089.4525 2123.1949,1090.5192 Q2122.5101,1091.5858 2122.5101,1093.6859 Q2122.5101,1095.7777 2123.1949,1096.8444 Q2123.8797,1097.911 2125.2244,1097.911 Q2125.8553,1097.911 2126.4488,1097.6412 Q2127.0423,1097.3715 2127.6731,1096.7904 Z " fill="#000000"/><text fill="#000000" font-family="sans-serif" font-size="14" lengthAdjust="spacing" textLength="128" x="2144.8" y="1098.661">HealthDataSchema</text><line style="stroke:#181818;stroke-width:0.5;" x1="2086" x2="2300" y1="1109.37" y2="1109.37"/><ellipse cx="2096" cy="1123.1141" fill="none" rx="3" ry="3" style="stroke:#038048;stroke-width:1.0;"/><text fill="#000000" font-family="sans-serif" font-size="14" lengthAdjust="spacing" textLength="190" x="2105" y="1126.9052">blood_pressure_systolic: int</text><ellipse cx="2096" cy="1139.6024" fill="none" rx="3" ry="3" style="stroke:#038048;stroke-width:1.0;"/><text fill="#000000" font-family="sans-serif" font-size="14" lengthAdjust="spacing" textLength="125" x="2105" y="1143.3934">blood_sugar: float</text><line style="stroke:#181818;stroke-width:0.5;" x1="2086" x2="2300" y1="1150.3466" y2="1150.3466"/></g><!--class PredictionSchema--><g id="elem_PredictionSchema"><rect codeLine="131" fill="#F1F1F1" height="80.9766" id="PredictionSchema" rx="2.5" ry="2.5" style="stroke:#181818;stroke-width:0.5;" width="171" x="1922.5" y="1262.08"/><ellipse cx="1945.15" cy="1278.08" fill="#ADD1B2" rx="11" ry="11" style="stroke:#181818;stroke-width:1.0;"/><path d="M1947.6231,1284.2231 Q1947.0421,1284.5219 1946.4029,1284.6713 Q1945.7638,1284.8207 1945.0582,1284.8207 Q1942.5514,1284.8207 1941.2315,1283.1689 Q1939.9117,1281.517 1939.9117,1278.3959 Q1939.9117,1275.2665 1941.2315,1273.6147 Q1942.5514,1271.9628 1945.0582,1271.9628 Q1945.7638,1271.9628 1946.4112,1272.1122 Q1947.0587,1272.2616 1947.6231,1272.5605 L1947.6231,1275.2831 Q1946.9923,1274.7021 1946.3988,1274.4323 Q1945.8053,1274.1625 1945.1744,1274.1625 Q1943.8297,1274.1625 1943.1449,1275.2292 Q1942.4601,1276.2958 1942.4601,1278.3959 Q1942.4601,1280.4877 1943.1449,1281.5544 Q1943.8297,1282.621 1945.1744,1282.621 Q1945.8053,1282.621 1946.3988,1282.3512 Q1946.9923,1282.0815 1947.6231,1281.5004 Z " fill="#000000"/><text fill="#000000" font-family="sans-serif" font-size="14" lengthAdjust="spacing" textLength="122" x="1960.85" y="1283.371">PredictionSchema</text><line style="stroke:#181818;stroke-width:0.5;" x1="1923.5" x2="2092.5" y1="1294.08" y2="1294.08"/><ellipse cx="1933.5" cy="1307.8241" fill="none" rx="3" ry="3" style="stroke:#038048;stroke-width:1.0;"/><text fill="#000000" font-family="sans-serif" font-size="14" lengthAdjust="spacing" textLength="145" x="1942.5" y="1311.6152">risk_probability: float</text><ellipse cx="1933.5" cy="1324.3124" fill="none" rx="3" ry="3" style="stroke:#038048;stroke-width:1.0;"/><text fill="#000000" font-family="sans-serif" font-size="14" lengthAdjust="spacing" textLength="89" x="1942.5" y="1328.1034">risk_level: str</text><line style="stroke:#181818;stroke-width:0.5;" x1="1923.5" x2="2092.5" y1="1335.0566" y2="1335.0566"/></g><!--class Config--><g id="elem_Config"><rect codeLine="138" fill="#F1F1F1" height="97.4648" id="Config" rx="2.5" ry="2.5" style="stroke:#181818;stroke-width:0.5;" width="139" x="1460.5" y="1507.54"/><ellipse cx="1502.95" cy="1523.54" fill="#ADD1B2" rx="11" ry="11" style="stroke:#181818;stroke-width:1.0;"/><path d="M1505.4231,1529.6831 Q1504.8421,1529.9819 1504.2029,1530.1313 Q1503.5638,1530.2807 1502.8582,1530.2807 Q1500.3514,1530.2807 1499.0315,1528.6289 Q1497.7117,1526.977 1497.7117,1523.8559 Q1497.7117,1520.7265 1499.0315,1519.0747 Q1500.3514,1517.4228 1502.8582,1517.4228 Q1503.5638,1517.4228 1504.2112,1517.5722 Q1504.8587,1517.7216 1505.4231,1518.0205 L1505.4231,1520.7431 Q1504.7923,1520.1621 1504.1988,1519.8923 Q1503.6053,1519.6225 1502.9744,1519.6225 Q1501.6297,1519.6225 1500.9449,1520.6892 Q1500.2601,1521.7558 1500.2601,1523.8559 Q1500.2601,1525.9477 1500.9449,1527.0144 Q1501.6297,1528.081 1502.9744,1528.081 Q1503.6053,1528.081 1504.1988,1527.8112 Q1504.7923,1527.5415 1505.4231,1526.9604 Z " fill="#000000"/><text fill="#000000" font-family="sans-serif" font-size="14" lengthAdjust="spacing" textLength="46" x="1523.05" y="1528.831">Config</text><line style="stroke:#181818;stroke-width:0.5;" x1="1461.5" x2="1598.5" y1="1539.54" y2="1539.54"/><ellipse cx="1471.5" cy="1553.2841" fill="none" rx="3" ry="3" style="stroke:#038048;stroke-width:1.0;"/><text fill="#000000" font-family="sans-serif" font-size="14" lengthAdjust="spacing" textLength="106" x="1480.5" y="1557.0752">DATABASE_URL</text><ellipse cx="1471.5" cy="1569.7724" fill="none" rx="3" ry="3" style="stroke:#038048;stroke-width:1.0;"/><text fill="#000000" font-family="sans-serif" font-size="14" lengthAdjust="spacing" textLength="85" x="1480.5" y="1573.5634">SECRET_KEY</text><ellipse cx="1471.5" cy="1586.2607" fill="none" rx="3" ry="3" style="stroke:#038048;stroke-width:1.0;"/><text fill="#000000" font-family="sans-serif" font-size="14" lengthAdjust="spacing" textLength="113" x="1480.5" y="1590.0517">AI_MODEL_PATH</text><line style="stroke:#181818;stroke-width:0.5;" x1="1461.5" x2="1598.5" y1="1597.0048" y2="1597.0048"/></g><!--class Security--><g id="elem_Security"><rect codeLine="143" fill="#F1F1F1" height="97.4648" id="Security" rx="2.5" ry="2.5" style="stroke:#181818;stroke-width:0.5;" width="175" x="1634.5" y="1507.54"/><ellipse cx="1690.75" cy="1523.54" fill="#ADD1B2" rx="11" ry="11" style="stroke:#181818;stroke-width:1.0;"/><path d="M1693.2231,1529.6831 Q1692.6421,1529.9819 1692.0029,1530.1313 Q1691.3638,1530.2807 1690.6582,1530.2807 Q1688.1514,1530.2807 1686.8315,1528.6289 Q1685.5117,1526.977 1685.5117,1523.8559 Q1685.5117,1520.7265 1686.8315,1519.0747 Q1688.1514,1517.4228 1690.6582,1517.4228 Q1691.3638,1517.4228 1692.0112,1517.5722 Q1692.6587,1517.7216 1693.2231,1518.0205 L1693.2231,1520.7431 Q1692.5923,1520.1621 1691.9988,1519.8923 Q1691.4053,1519.6225 1690.7744,1519.6225 Q1689.4297,1519.6225 1688.7449,1520.6892 Q1688.0601,1521.7558 1688.0601,1523.8559 Q1688.0601,1525.9477 1688.7449,1527.0144 Q1689.4297,1528.081 1690.7744,1528.081 Q1691.4053,1528.081 1691.9988,1527.8112 Q1692.5923,1527.5415 1693.2231,1526.9604 Z " fill="#000000"/><text fill="#000000" font-family="sans-serif" font-size="14" lengthAdjust="spacing" textLength="54" x="1711.25" y="1528.831">Security</text><line style="stroke:#181818;stroke-width:0.5;" x1="1635.5" x2="1808.5" y1="1539.54" y2="1539.54"/><line style="stroke:#181818;stroke-width:0.5;" x1="1635.5" x2="1808.5" y1="1547.54" y2="1547.54"/><ellipse cx="1645.5" cy="1561.2841" fill="#84BE84" rx="3" ry="3" style="stroke:#038048;stroke-width:1.0;"/><text fill="#000000" font-family="sans-serif" font-size="14" lengthAdjust="spacing" textLength="116" x="1654.5" y="1565.0752">hash_password()</text><ellipse cx="1645.5" cy="1577.7724" fill="#84BE84" rx="3" ry="3" style="stroke:#038048;stroke-width:1.0;"/><text fill="#000000" font-family="sans-serif" font-size="14" lengthAdjust="spacing" textLength="120" x="1654.5" y="1581.5634">verify_password()</text><ellipse cx="1645.5" cy="1594.2607" fill="#84BE84" rx="3" ry="3" style="stroke:#038048;stroke-width:1.0;"/><text fill="#000000" font-family="sans-serif" font-size="14" lengthAdjust="spacing" textLength="149" x="1654.5" y="1598.0517">create_access_token()</text></g><!--class Database--><g id="elem_Database"><rect codeLine="148" fill="#F1F1F1" height="97.4648" id="Database" rx="2.5" ry="2.5" style="stroke:#181818;stroke-width:0.5;" width="113" x="1473.5" y="1682.01"/><ellipse cx="1496.6" cy="1698.01" fill="#ADD1B2" rx="11" ry="11" style="stroke:#181818;stroke-width:1.0;"/><path d="M1499.0731,1704.1531 Q1498.4921,1704.4519 1497.8529,1704.6013 Q1497.2138,1704.7507 1496.5082,1704.7507 Q1494.0014,1704.7507 1492.6815,1703.0989 Q1491.3617,1701.447 1491.3617,1698.3259 Q1491.3617,1695.1965 1492.6815,1693.5447 Q1494.0014,1691.8928 1496.5082,1691.8928 Q1497.2138,1691.8928 1497.8612,1692.0422 Q1498.5087,1692.1916 1499.0731,1692.4905 L1499.0731,1695.2131 Q1498.4423,1694.6321 1497.8488,1694.3623 Q1497.2553,1694.0925 1496.6244,1694.0925 Q1495.2797,1694.0925 1494.5949,1695.1592 Q1493.9101,1696.2258 1493.9101,1698.3259 Q1493.9101,1700.4177 1494.5949,1701.4844 Q1495.2797,1702.551 1496.6244,1702.551 Q1497.2553,1702.551 1497.8488,1702.2812 Q1498.4423,1702.0115 1499.0731,1701.4304 Z " fill="#000000"/><text fill="#000000" font-family="sans-serif" font-size="14" lengthAdjust="spacing" textLength="63" x="1512.4" y="1703.301">Database</text><line style="stroke:#181818;stroke-width:0.5;" x1="1474.5" x2="1585.5" y1="1714.01" y2="1714.01"/><ellipse cx="1484.5" cy="1727.7541" fill="none" rx="3" ry="3" style="stroke:#038048;stroke-width:1.0;"/><text fill="#000000" font-family="sans-serif" font-size="14" lengthAdjust="spacing" textLength="47" x="1493.5" y="1731.5452">engine</text><ellipse cx="1484.5" cy="1744.2424" fill="none" rx="3" ry="3" style="stroke:#038048;stroke-width:1.0;"/><text fill="#000000" font-family="sans-serif" font-size="14" lengthAdjust="spacing" textLength="87" x="1493.5" y="1748.0334">SessionLocal</text><ellipse cx="1484.5" cy="1760.7307" fill="none" rx="3" ry="3" style="stroke:#038048;stroke-width:1.0;"/><text fill="#000000" font-family="sans-serif" font-size="14" lengthAdjust="spacing" textLength="31" x="1493.5" y="1764.5217">Base</text><line style="stroke:#181818;stroke-width:0.5;" x1="1474.5" x2="1585.5" y1="1771.4748" y2="1771.4748"/></g><!--class AIEngine--><g id="elem_AIEngine"><rect codeLine="156" fill="#F1F1F1" height="130.4414" id="AIEngine" rx="2.5" ry="2.5" style="stroke:#181818;stroke-width:0.5;" width="186" x="1067" y="798.93"/><ellipse cx="1125.25" cy="814.93" fill="#ADD1B2" rx="11" ry="11" style="stroke:#181818;stroke-width:1.0;"/><path d="M1127.7231,821.0731 Q1127.1421,821.3719 1126.5029,821.5213 Q1125.8638,821.6707 1125.1582,821.6707 Q1122.6514,821.6707 1121.3315,820.0189 Q1120.0117,818.367 1120.0117,815.2459 Q1120.0117,812.1165 1121.3315,810.4647 Q1122.6514,808.8128 1125.1582,808.8128 Q1125.8638,808.8128 1126.5112,808.9622 Q1127.1587,809.1116 1127.7231,809.4105 L1127.7231,812.1331 Q1127.0923,811.5521 1126.4988,811.2823 Q1125.9053,811.0125 1125.2744,811.0125 Q1123.9297,811.0125 1123.2449,812.0792 Q1122.5601,813.1458 1122.5601,815.2459 Q1122.5601,817.3377 1123.2449,818.4044 Q1123.9297,819.471 1125.2744,819.471 Q1125.9053,819.471 1126.4988,819.2012 Q1127.0923,818.9315 1127.7231,818.3504 Z " fill="#000000"/><text fill="#000000" font-family="sans-serif" font-size="14" lengthAdjust="spacing" textLength="61" x="1145.75" y="820.221">AIEngine</text><line style="stroke:#181818;stroke-width:0.5;" x1="1068" x2="1252" y1="830.93" y2="830.93"/><ellipse cx="1078" cy="844.6741" fill="none" rx="3" ry="3" style="stroke:#038048;stroke-width:1.0;"/><text fill="#000000" font-family="sans-serif" font-size="14" lengthAdjust="spacing" textLength="150" x="1087" y="848.4652">model: XGBoostModel</text><line style="stroke:#181818;stroke-width:0.5;" x1="1068" x2="1252" y1="855.4183" y2="855.4183"/><ellipse cx="1078" cy="869.1624" fill="#84BE84" rx="3" ry="3" style="stroke:#038048;stroke-width:1.0;"/><text fill="#000000" font-family="sans-serif" font-size="14" lengthAdjust="spacing" textLength="90" x="1087" y="872.9534">load_model()</text><ellipse cx="1078" cy="885.6507" fill="#84BE84" rx="3" ry="3" style="stroke:#038048;stroke-width:1.0;"/><text fill="#000000" font-family="sans-serif" font-size="14" lengthAdjust="spacing" textLength="123" x="1087" y="889.4417">preprocess_data()</text><ellipse cx="1078" cy="902.139" fill="#84BE84" rx="3" ry="3" style="stroke:#038048;stroke-width:1.0;"/><text fill="#000000" font-family="sans-serif" font-size="14" lengthAdjust="spacing" textLength="58" x="1087" y="905.93">predict()</text><ellipse cx="1078" cy="918.6273" fill="#84BE84" rx="3" ry="3" style="stroke:#038048;stroke-width:1.0;"/><text fill="#000000" font-family="sans-serif" font-size="14" lengthAdjust="spacing" textLength="160" x="1087" y="922.4183">calculate_shap_values()</text></g><!--class ModelLoader--><g id="elem_ModelLoader"><rect codeLine="163" fill="#F1F1F1" height="80.9766" id="ModelLoader" rx="2.5" ry="2.5" style="stroke:#181818;stroke-width:0.5;" width="180" x="855" y="1077.37"/><ellipse cx="896.55" cy="1093.37" fill="#ADD1B2" rx="11" ry="11" style="stroke:#181818;stroke-width:1.0;"/><path d="M899.0231,1099.5131 Q898.4421,1099.8119 897.8029,1099.9613 Q897.1638,1100.1107 896.4582,1100.1107 Q893.9514,1100.1107 892.6315,1098.4589 Q891.3117,1096.807 891.3117,1093.6859 Q891.3117,1090.5565 892.6315,1088.9047 Q893.9514,1087.2528 896.4582,1087.2528 Q897.1638,1087.2528 897.8112,1087.4022 Q898.4587,1087.5516 899.0231,1087.8505 L899.0231,1090.5731 Q898.3923,1089.9921 897.7988,1089.7223 Q897.2053,1089.4525 896.5744,1089.4525 Q895.2297,1089.4525 894.5449,1090.5192 Q893.8601,1091.5858 893.8601,1093.6859 Q893.8601,1095.7777 894.5449,1096.8444 Q895.2297,1097.911 896.5744,1097.911 Q897.2053,1097.911 897.7988,1097.6412 Q898.3923,1097.3715 899.0231,1096.7904 Z " fill="#000000"/><text fill="#000000" font-family="sans-serif" font-size="14" lengthAdjust="spacing" textLength="89" x="916.45" y="1098.661">ModelLoader</text><line style="stroke:#181818;stroke-width:0.5;" x1="856" x2="1034" y1="1109.37" y2="1109.37"/><line style="stroke:#181818;stroke-width:0.5;" x1="856" x2="1034" y1="1117.37" y2="1117.37"/><ellipse cx="866" cy="1131.1141" fill="#84BE84" rx="3" ry="3" style="stroke:#038048;stroke-width:1.0;"/><text fill="#000000" font-family="sans-serif" font-size="14" lengthAdjust="spacing" textLength="154" x="875" y="1134.9052">load_xgboost_model()</text><ellipse cx="866" cy="1147.6024" fill="#84BE84" rx="3" ry="3" style="stroke:#038048;stroke-width:1.0;"/><text fill="#000000" font-family="sans-serif" font-size="14" lengthAdjust="spacing" textLength="113" x="875" y="1151.3934">validate_model()</text></g><!--class DataPreprocessor--><g id="elem_DataPreprocessor"><rect codeLine="167" fill="#F1F1F1" height="97.4648" id="DataPreprocessor" rx="2.5" ry="2.5" style="stroke:#181818;stroke-width:0.5;" width="193" x="1070.5" y="1069.12"/><ellipse cx="1103.5" cy="1085.12" fill="#ADD1B2" rx="11" ry="11" style="stroke:#181818;stroke-width:1.0;"/><path d="M1105.9731,1091.2631 Q1105.3921,1091.5619 1104.7529,1091.7113 Q1104.1138,1091.8607 1103.4082,1091.8607 Q1100.9014,1091.8607 1099.5815,1090.2089 Q1098.2617,1088.557 1098.2617,1085.4359 Q1098.2617,1082.3065 1099.5815,1080.6547 Q1100.9014,1079.0028 1103.4082,1079.0028 Q1104.1138,1079.0028 1104.7612,1079.1522 Q1105.4087,1079.3016 1105.9731,1079.6005 L1105.9731,1082.3231 Q1105.3423,1081.7421 1104.7488,1081.4723 Q1104.1553,1081.2025 1103.5244,1081.2025 Q1102.1797,1081.2025 1101.4949,1082.2692 Q1100.8101,1083.3358 1100.8101,1085.4359 Q1100.8101,1087.5277 1101.4949,1088.5944 Q1102.1797,1089.661 1103.5244,1089.661 Q1104.1553,1089.661 1104.7488,1089.3912 Q1105.3423,1089.1215 1105.9731,1088.5404 Z " fill="#000000"/><text fill="#000000" font-family="sans-serif" font-size="14" lengthAdjust="spacing" textLength="121" x="1121.5" y="1090.411">DataPreprocessor</text><line style="stroke:#181818;stroke-width:0.5;" x1="1071.5" x2="1262.5" y1="1101.12" y2="1101.12"/><line style="stroke:#181818;stroke-width:0.5;" x1="1071.5" x2="1262.5" y1="1109.12" y2="1109.12"/><ellipse cx="1081.5" cy="1122.8641" fill="#84BE84" rx="3" ry="3" style="stroke:#038048;stroke-width:1.0;"/><text fill="#000000" font-family="sans-serif" font-size="14" lengthAdjust="spacing" textLength="167" x="1090.5" y="1126.6552">handle_missing_values()</text><ellipse cx="1081.5" cy="1139.3524" fill="#84BE84" rx="3" ry="3" style="stroke:#038048;stroke-width:1.0;"/><text fill="#000000" font-family="sans-serif" font-size="14" lengthAdjust="spacing" textLength="142" x="1090.5" y="1143.1434">encode_categorical()</text><ellipse cx="1081.5" cy="1155.8407" fill="#84BE84" rx="3" ry="3" style="stroke:#038048;stroke-width:1.0;"/><text fill="#000000" font-family="sans-serif" font-size="14" lengthAdjust="spacing" textLength="142" x="1090.5" y="1159.6317">normalize_features()</text></g><!--entity PostgreSQL--><g id="elem_PostgreSQL"><path d="M2416,1717.99 C2416,1707.99 2465,1707.99 2465,1707.99 C2465,1707.99 2514,1707.99 2514,1717.99 L2514,1743.4783 C2514,1753.4783 2465,1753.4783 2465,1753.4783 C2465,1753.4783 2416,1753.4783 2416,1743.4783 L2416,1717.99 " fill="#F1F1F1" style="stroke:#181818;stroke-width:0.5;"/><path d="M2416,1717.99 C2416,1727.99 2465,1727.99 2465,1727.99 C2465,1727.99 2514,1727.99 2514,1717.99 " fill="none" style="stroke:#181818;stroke-width:0.5;"/><text fill="#000000" font-family="sans-serif" font-size="14" lengthAdjust="spacing" textLength="78" x="2426" y="1745.5252">PostgreSQL</text></g><g id="elem_GMN61"><path d="M2570,275.11 L2570,346.3522 L2810,346.3522 L2810,285.11 L2800,275.11 L2570,275.11 " fill="#FEFFDD" style="stroke:#181818;stroke-width:0.5;"/><path d="M2800,275.11 L2800,285.11 L2810,285.11 L2800,275.11 " fill="#FEFFDD" style="stroke:#181818;stroke-width:1.0;"/><text fill="#000000" font-family="sans-serif" font-size="13" font-weight="bold" lengthAdjust="spacing" textLength="64" x="2576" y="292.6784">API Layer</text><text fill="#000000" font-family="sans-serif" font-size="13" lengthAdjust="spacing" textLength="219" x="2576" y="307.9889">- HTTP request/response handling</text><text fill="#000000" font-family="sans-serif" font-size="13" lengthAdjust="spacing" textLength="111" x="2576" y="323.2995">- Input validation</text><text fill="#000000" font-family="sans-serif" font-size="13" lengthAdjust="spacing" textLength="198" x="2576" y="338.61">- Authentication/Authorization</text></g><g id="elem_GMN64"><path d="M2570,502.57 L2570,573.8122 L2762,573.8122 L2762,512.57 L2752,502.57 L2570,502.57 " fill="#FEFFDD" style="stroke:#181818;stroke-width:0.5;"/><path d="M2752,502.57 L2752,512.57 L2762,512.57 L2752,502.57 " fill="#FEFFDD" style="stroke:#181818;stroke-width:1.0;"/><text fill="#000000" font-family="sans-serif" font-size="13" font-weight="bold" lengthAdjust="spacing" textLength="90" x="2576" y="520.1384">Service Layer</text><text fill="#000000" font-family="sans-serif" font-size="13" lengthAdjust="spacing" textLength="102" x="2576" y="535.4489">- Business logic</text><text fill="#000000" font-family="sans-serif" font-size="13" lengthAdjust="spacing" textLength="171" x="2576" y="550.7595">- Transaction management</text><text fill="#000000" font-family="sans-serif" font-size="13" lengthAdjust="spacing" textLength="98" x="2576" y="566.07">- Orchestration</text></g><g id="elem_GMN67"><path d="M2570.5,828.52 L2570.5,899.7622 L2753.5,899.7622 L2753.5,838.52 L2743.5,828.52 L2570.5,828.52 " fill="#FEFFDD" style="stroke:#181818;stroke-width:0.5;"/><path d="M2743.5,828.52 L2743.5,838.52 L2753.5,838.52 L2743.5,828.52 " fill="#FEFFDD" style="stroke:#181818;stroke-width:1.0;"/><text fill="#000000" font-family="sans-serif" font-size="13" font-weight="bold" lengthAdjust="spacing" textLength="114" x="2576.5" y="846.0884">Repository Layer</text><text fill="#000000" font-family="sans-serif" font-size="13" lengthAdjust="spacing" textLength="162" x="2576.5" y="861.3989">- Data access abstraction</text><text fill="#000000" font-family="sans-serif" font-size="13" lengthAdjust="spacing" textLength="119" x="2576.5" y="876.7095">- CRUD operations</text><text fill="#000000" font-family="sans-serif" font-size="13" lengthAdjust="spacing" textLength="105" x="2576.5" y="892.02">- Query building</text></g><g id="elem_GMN70"><path d="M2570.5,1082.23 L2570.5,1153.4722 L2779.5,1153.4722 L2779.5,1092.23 L2769.5,1082.23 L2570.5,1082.23 " fill="#FEFFDD" style="stroke:#181818;stroke-width:0.5;"/><path d="M2769.5,1082.23 L2769.5,1092.23 L2779.5,1092.23 L2769.5,1082.23 " fill="#FEFFDD" style="stroke:#181818;stroke-width:1.0;"/><text fill="#000000" font-family="sans-serif" font-size="13" font-weight="bold" lengthAdjust="spacing" textLength="74" x="2576.5" y="1099.7984">ML Module</text><text fill="#000000" font-family="sans-serif" font-size="13" lengthAdjust="spacing" textLength="169" x="2576.5" y="1115.1089">- XGBoost model inference</text><text fill="#000000" font-family="sans-serif" font-size="13" lengthAdjust="spacing" textLength="155" x="2576.5" y="1130.4195">- SHAP value calculation</text><text fill="#000000" font-family="sans-serif" font-size="13" lengthAdjust="spacing" textLength="188" x="2576.5" y="1145.73">- Feature importance analysis</text></g><!--link endpoints to services--><g id="link_endpoints_services"><path codeLine="182" d="M852.014,324.3185 C852.2003,324.5895 852.3894,324.8633 852.5814,325.1398 C852.9652,325.6928 853.3602,326.2565 853.7659,326.8296 C854.5773,327.9759 855.4317,329.1598 856.3263,330.3713 C863.4825,340.0625 873.205,351.51 884,359.46 C965.79,419.685 1071.025,463.8975 1156.3138,493.1625 C1198.9581,507.795 1236.6159,518.6906 1263.8633,525.9825 C1277.487,529.6284 1288.508,532.3734 1296.2485,534.2341 C1297.216,534.4667 1298.1323,534.6855 1298.996,534.8905 C1299.4279,534.993 1299.8466,535.092 1300.252,535.1876 C1300.4547,535.2354 1294.8133,533.9093 1295.0093,533.9554 " fill="none" id="endpoints-to-services" style="stroke:#181818;stroke-width:1.0;"/><polygon fill="#181818" points="1300.8501,535.3285,1293.0043,529.375,1295.9828,534.1842,1291.1735,537.1627,1300.8501,535.3285" style="stroke:#181818;stroke-width:1.0;"/><text fill="#000000" font-family="sans-serif" font-size="13" lengthAdjust="spacing" textLength="29" x="947.85" y="403.0284">calls</text></g><!--link services to repositories--><g id="link_services_repositories"><path codeLine="183" d="M1300.9423,582.1215 C1300.7435,583.9466 1300.5593,585.8066 1300.3932,587.6969 C1300.061,591.4773 1299.8008,595.3783 1299.6388,599.3612 C1298.3425,631.225 1303.33,668.335 1328,690.93 C1337.2,699.35 2216.72,715.58 2226,723.93 C2231.7188,729.0725 2236.333,735.0573 2240.0279,741.5994 C2241.8754,744.8704 2243.493,748.2807 2244.904,751.7947 C2245.2567,752.6732 2245.5965,753.5581 2245.9238,754.449 C2246.0874,754.8945 2244.2604,749.6802 2244.4178,750.1285 " fill="none" id="services-to-repositories" style="stroke:#181818;stroke-width:1.0;"/><polygon fill="#181818" points="2246.4053,755.7897,2247.1982,745.9728,2244.749,751.072,2239.6498,748.6229,2246.4053,755.7897" style="stroke:#181818;stroke-width:1.0;"/><text fill="#000000" font-family="sans-serif" font-size="13" lengthAdjust="spacing" textLength="29" x="2052.73" y="712.4984">uses</text></g><!--link services to ml--><g id="link_services_ml"><path codeLine="184" d="M1302.6367,611.2311 C1302.6148,611.4924 1302.593,611.7541 1302.5711,612.0161 C1302.3962,614.1125 1302.2203,616.2324 1302.0437,618.3728 C1301.3373,626.9344 1300.6198,635.8237 1299.9141,644.8427 C1298.5025,662.8806 1297.1375,681.4375 1296,698.93 C1295.4163,707.9025 1294.855,717.1533 1294.3196,726.478 C1294.1857,728.8092 1294.0534,731.145 1293.9229,733.4822 C1293.8576,734.6508 1293.7927,735.8198 1293.7282,736.9887 C1293.696,737.5732 1293.6639,738.1577 1293.6319,738.7421 C1293.6159,739.0343 1293.927,733.3354 1293.9111,733.6275 " fill="none" id="services-to-ml" style="stroke:#181818;stroke-width:1.0;"/><polygon fill="#181818" points="1293.5839,739.6186,1298.0687,730.8501,1293.8566,734.626,1290.0806,730.4139,1293.5839,739.6186" style="stroke:#181818;stroke-width:1.0;"/><text fill="#000000" font-family="sans-serif" font-size="13" lengthAdjust="spacing" textLength="29" x="1297" y="712.4984">uses</text></g><!--link repositories to models--><g id="link_repositories_models"><path codeLine="185" d="M2238.0124,936.9064 C2237.7375,937.4526 2237.4552,937.9944 2237.1653,938.5315 C2236.5854,939.6058 2235.9751,940.6611 2235.3328,941.6948 C2232.7638,945.8295 2229.6838,949.6175 2226,952.88 C2219.31,958.8 1913.2,980.58 1906,985.88 C1880.91,1004.355 1866.9525,1036.3725 1859.2463,1064.1263 C1859.0054,1064.9936 1858.7707,1065.8567 1858.542,1066.7151 C1858.4276,1067.1443 1858.3147,1067.5724 1858.2033,1067.9992 C1858.1476,1068.2126 1859.5933,1062.6165 1859.5383,1062.8292 " fill="none" id="repositories-to-models" style="stroke:#181818;stroke-width:1.0;"/><polygon fill="#181818" points="1858.0372,1068.6384,1864.1616,1060.9253,1859.2881,1063.7974,1856.416,1058.9239,1858.0372,1068.6384" style="stroke:#181818;stroke-width:1.0;"/><text fill="#000000" font-family="sans-serif" font-size="13" lengthAdjust="spacing" textLength="107" x="2156.29" y="974.4484">CRUD operations</text></g><!--link endpoints to schemas--><g id="link_endpoints_schemas"><path codeLine="186" d="M852.0549,326.905 C852.1464,327.0543 852.2385,327.2042 852.3314,327.3547 C852.5172,327.6555 852.7059,327.9586 852.8975,328.2637 C853.664,329.4839 854.4769,330.7363 855.335,332.0075 C862.2,342.1775 871.96,353.56 884,359.46 C1027.98,430.03 2213.99,299.74 2326,414.46 C2434.205,525.28 2437.5125,699.0125 2413.37,845.9625 C2401.2988,919.4375 2382.365,986.2169 2366.2497,1035.0888 C2358.192,1059.5247 2350.839,1079.4838 2345.4007,1093.5645 C2345.0608,1094.4445 2346.9053,1089.7104 2346.5807,1090.5442 " fill="none" id="endpoints-to-schemas" style="stroke:#181818;stroke-width:1.0;"/><polygon fill="#181818" points="2344.4037,1096.1354,2351.3966,1089.2,2346.2179,1091.4761,2343.9417,1086.2973,2344.4037,1096.1354" style="stroke:#181818;stroke-width:1.0;"/><text fill="#000000" font-family="sans-serif" font-size="13" lengthAdjust="spacing" textLength="171" x="2426.6" y="712.4984">validates request/response</text></g><!--link models to PostgreSQL--><g id="link_models_PostgreSQL"><path codeLine="187" d="M1858.0248,1142.013 C1858.1322,1142.2749 1858.2408,1142.5381 1858.3504,1142.8026 C1858.5697,1143.3317 1858.7935,1143.8661 1859.0218,1144.4054 C1859.4785,1145.484 1859.9534,1146.5823 1860.4466,1147.6972 C1861.433,1149.927 1862.4928,1152.2234 1863.6275,1154.5625 C1872.705,1173.275 1886.575,1194.715 1906,1206.59 C1984.28,1254.43 2245.92,1187.59 2317,1245.59 C2464.61,1366.02 2468.5384,1623.5927 2466.2184,1701.5827 " fill="none" id="models-to-PostgreSQL" style="stroke:#181818;stroke-width:1.0;"/><polygon fill="#181818" points="2466.04,1707.58,2470.3058,1698.7029,2466.1887,1702.5822,2462.3094,1698.465,2466.04,1707.58" style="stroke:#181818;stroke-width:1.0;"/><text fill="#000000" font-family="sans-serif" font-size="13" lengthAdjust="spacing" textLength="88" x="2430.19" y="1421.1084">ORM mapping</text></g><!--link core to PostgreSQL--><g id="link_core_PostgreSQL"><path codeLine="188" d="M1853.3449,1559.591 C1853.5982,1559.6614 1853.857,1559.7334 1854.1212,1559.8069 C1855.1781,1560.1009 1856.3219,1560.4191 1857.55,1560.7608 C1860.0062,1561.4441 1862.7996,1562.2212 1865.9095,1563.0863 C1878.3491,1566.5468 1895.8519,1571.4159 1917.0888,1577.3236 C1959.5625,1589.1391 2016.9725,1605.1094 2078.685,1622.2763 C2202.11,1656.61 2336.9644,1694.1223 2409.7394,1714.3623 " fill="none" id="core-to-PostgreSQL" style="stroke:#181818;stroke-width:1.0;"/><polygon fill="#181818" points="2415.52,1715.97,2407.9209,1709.7047,2410.7028,1714.6303,2405.7773,1717.4122,2415.52,1715.97" style="stroke:#181818;stroke-width:1.0;"/><text fill="#000000" font-family="sans-serif" font-size="13" lengthAdjust="spacing" textLength="70" x="2174.59" y="1648.5784">connection</text></g><!--link services to core--><g id="link_services_core"><path codeLine="190" d="M1300.1142,541.547 C1294.9835,542.9253 1287.7452,544.8927 1278.7033,547.4082 C1260.6193,552.4391 1235.3205,559.6627 1205.2373,568.7516 C1145.0709,586.9294 1065.7669,612.5688 986.7688,643.0525 C828.7725,704.02 672,784.365 672,863.15 C672,863.15 672,863.15 672,1303.56 C672,1474.46 1265.04,1381.69 1435,1399.54 C1478.36,1404.1 1794.12,1402.8 1826,1432.54 C1830.9663,1437.1738 1832.0724,1437.2871 1835.3244,1443.1099 " fill="none" id="services-to-core" style="stroke:#181818;stroke-width:1.0;"/><polygon fill="#181818" points="1838.25,1448.3483,1837.3538,1438.5403,1835.812,1443.983,1830.3693,1442.4411,1838.25,1448.3483" style="stroke:#181818;stroke-width:1.0;"/><text fill="#000000" font-family="sans-serif" font-size="13" lengthAdjust="spacing" textLength="133" x="673" y="1122.9184">uses Security, Config</text></g><!--link HealthDataService to HealthDataRepository--><g id="link_HealthDataService_HealthDataRepository"><path codeLine="193" d="M1667.36,587.14 C1686.98,617.06 1712.84,656.31 1736,690.93 C1764.14,732.98 1793.1163,775.5952 1816.6563,810.0652 " fill="none" id="HealthDataService-to-HealthDataRepository" style="stroke:#181818;stroke-width:1.0;"/><polygon fill="#181818" points="1820.04,815.02,1818.2676,805.3319,1817.2202,810.891,1811.6612,809.8436,1820.04,815.02" style="stroke:#181818;stroke-width:1.0;"/></g><!--link HealthDataService to AIEngine--><g id="link_HealthDataService_AIEngine"><path codeLine="194" d="M1616.28,587.17 C1599.8,621.28 1573.01,665.4 1536,690.93 C1494.02,719.89 1474.55,709.12 1424,715.93 C1405.59,718.4 1273.26,714.94 1257,723.93 C1227.09,740.46 1207.3426,765.3724 1191.4326,793.3924 " fill="none" id="HealthDataService-to-AIEngine" style="stroke:#181818;stroke-width:1.0;"/><polygon fill="#181818" points="1188.47,798.61,1196.3923,792.7587,1190.9388,794.262,1189.4355,788.8086,1188.47,798.61" style="stroke:#181818;stroke-width:1.0;"/></g><!--link PredictionService to PredictionRepository--><g id="link_PredictionService_PredictionRepository"><path codeLine="195" d="M1460.58,587.34 C1498.2,648.59 1559.6598,748.6374 1597.2798,809.8874 " fill="none" id="PredictionService-to-PredictionRepository" style="stroke:#181818;stroke-width:1.0;"/><polygon fill="#181818" points="1600.42,815,1599.1181,805.2376,1597.8032,810.7395,1592.3013,809.4245,1600.42,815" style="stroke:#181818;stroke-width:1.0;"/></g><!--link PredictionService to AIEngine--><g id="link_PredictionService_AIEngine"><path codeLine="196" d="M1440.09,587.14 C1444.7,627.6 1443.4,683.9 1409,715.93 C1396.62,727.45 1271.78,715.71 1257,723.93 C1227.13,740.53 1207.3856,765.4541 1191.4656,793.4541 " fill="none" id="PredictionService-to-AIEngine" style="stroke:#181818;stroke-width:1.0;"/><polygon fill="#181818" points="1188.5,798.67,1196.4256,792.8233,1190.9713,794.3234,1189.4711,788.8691,1188.5,798.67" style="stroke:#181818;stroke-width:1.0;"/></g><!--link AnalysisService to PredictionRepository--><g id="link_AnalysisService_PredictionRepository"><path codeLine="197" d="M1807.94,587.34 C1768.42,648.59 1703.833,748.7084 1664.313,809.9584 " fill="none" id="AnalysisService-to-PredictionRepository" style="stroke:#181818;stroke-width:1.0;"/><polygon fill="#181818" points="1661.06,815,1669.3006,809.6062,1663.7708,810.7986,1662.5784,805.2689,1661.06,815" style="stroke:#181818;stroke-width:1.0;"/></g><!--link AnalysisService to HealthDataRepository--><g id="link_AnalysisService_HealthDataRepository"><path codeLine="198" d="M1841.08,587.34 C1843.73,648.59 1848.0107,747.7556 1850.6607,809.0056 " fill="none" id="AnalysisService-to-HealthDataRepository" style="stroke:#181818;stroke-width:1.0;"/><polygon fill="#181818" points="1850.92,815,1854.5272,805.8355,1850.7039,810.0047,1846.5347,806.1813,1850.92,815" style="stroke:#181818;stroke-width:1.0;"/></g><!--link AIEngine to DataPreprocessor--><g id="link_AIEngine_DataPreprocessor"><path codeLine="200" d="M1161.79,929.64 C1163,973.05 1164.4044,1023.3523 1165.4944,1062.8323 " fill="none" id="AIEngine-to-DataPreprocessor" style="stroke:#181818;stroke-width:1.0;"/><polygon fill="#181818" points="1165.66,1068.83,1169.4101,1059.723,1165.522,1063.8319,1161.4131,1059.9438,1165.66,1068.83" style="stroke:#181818;stroke-width:1.0;"/></g><!--link AIEngine to ModelLoader--><g id="link_AIEngine_ModelLoader"><path codeLine="201" d="M1102.1,929.62 C1086.06,947.71 1068.74,967.46 1053,985.88 C1027.14,1016.12 1002.3095,1046.2382 981.0395,1072.3482 " fill="none" id="AIEngine-to-ModelLoader" style="stroke:#181818;stroke-width:1.0;"/><polygon fill="#181818" points="977.25,1077,986.0355,1072.5486,980.4079,1073.1235,979.8331,1067.4959,977.25,1077" style="stroke:#181818;stroke-width:1.0;"/></g><!--link api to GMN61--><g id="link_api_GMN61"><path d="M1263.9816,310.73 C1267.4087,310.73 1270.8359,310.73 1274.2631,310.73 C1281.1175,310.73 1287.9719,310.73 1294.8262,310.73 C1308.535,310.73 1322.2437,310.73 1335.9524,310.73 C1363.3698,310.73 1390.7872,310.73 1418.2046,310.73 C1473.0393,310.73 1527.8738,310.73 1582.7083,310.73 C1692.3772,310.73 1802.0456,310.73 1911.7138,310.73 C2131.05,310.73 2350.385,310.73 2569.72,310.73 " fill="none" id="api-GMN61" style="stroke:#181818;stroke-width:1.0;stroke-dasharray:7.0,7.0;"/></g><!--link services to GMN64--><g id="link_services_GMN64"><path d="M1312.1748,430.2292 C1312.2559,429.9881 1312.3377,429.7474 1312.4203,429.507 C1312.5855,429.0263 1312.7538,428.5472 1312.9251,428.0698 C1313.6104,426.1601 1314.345,424.2774 1315.1317,422.427 C1321.4256,407.6238 1331.0575,394.8875 1345.5,386.96 C1394.44,360.09 2296.06,374.59 2350.5,386.96 C2447.64,409.04 2549.8,464.9 2610.68,502.19 " fill="none" id="services-GMN64" style="stroke:#181818;stroke-width:1.0;stroke-dasharray:7.0,7.0;"/></g><!--link repositories to GMN67--><g id="link_repositories_GMN67"><path d="M2254.3932,864.15 C2255.2358,864.15 2256.0784,864.15 2256.921,864.15 C2260.2913,864.15 2263.6616,864.15 2267.032,864.15 C2273.7727,864.15 2280.5134,864.15 2287.2542,864.15 C2300.7357,864.15 2314.2173,864.15 2327.6991,864.15 C2354.6625,864.15 2381.6263,864.15 2408.59,864.15 C2462.5175,864.15 2516.445,864.15 2570.37,864.15 " fill="none" id="repositories-GMN67" style="stroke:#181818;stroke-width:1.0;stroke-dasharray:7.0,7.0;"/></g><!--link ml to GMN70--><g id="link_ml_GMN70"><path d="M1296.0612,889.5902 C1296.2755,890.1277 1296.4944,890.6705 1296.7179,891.218 C1297.1649,892.3131 1297.6303,893.4275 1298.1144,894.558 C1299.0825,896.8189 1300.1253,899.1442 1301.245,901.5088 C1310.2025,920.425 1324.08,941.85 1344,952.88 C1366.55,965.36 2246.53,956.88 2272,960.88 C2308.8,966.66 2316.93,973.31 2352,985.88 C2435.31,1015.73 2528.85,1054.22 2593.74,1081.74 " fill="none" id="ml-GMN70" style="stroke:#181818;stroke-width:1.0;stroke-dasharray:7.0,7.0;"/></g><!--SRC=[jLZTRzis47_NNy5v3slJ6TdMTcYD8e1Zoqamft5j1zYU15gYPQ8KgP5KMhVm_xuZzM7PeIGdnVoGIBeZxtV7- -HF4LbJJj3S7os77w-cFWePLihpr6VAKonnWb8SViOnMUWj8qYIK6CUC-9vnNVKcs2bXxCRT0aV28_GK8ORge4nawI7ldi8VlPFjGAdQKceY4SCj8S-V9ZYBP4N5-Xd__NaZycujkI0- -7ttX7fW0oOKa6vLYukyxCgezw6OAOtGOGrxY6iKF5UBczOR7wlqEnkiKJd-Og-sQ65zye_P3t_JgFTK_WtL6aXjyubkpODKqaY6cegk5NGl3v5lM9v5zIz57MIQdN-Pwk6EMPRHPLLh7nvYd9VDbZtwRfVhkr4JMH8kAQCz2Nc42rnrmej0Kv_BI2686AQ5hHgcIaYSnNjqrFqaoG6snBPoSX4J7cNBbRyUKAUha8YE8KZ1lMj7iNhQPhaXiUQWk7xAUQ4TMgZDjZ8wiDn9LGfSBAk_RdGT4r3R1toHFrspTad8YdeHdX8ILS2YeaEmao2c-Z06FZ5oruNUxHoCHt2sR_jMb8ko7kWeS5Opxll9c_zzqUeS_7NDY6D8HyjyfKEtLwXK1AiIL1BhIzUEjYCAWLFaG6SR0-OqSZivzXevy0ugp9B6yQOS2BDhlj4r0XIKlKvOEI1C2UBJHxVICwsnY5eeax0EInoJXjAcV70v2Yw3ieKvOGGOXPcpAfJPIWdOvc80fkNJa6PwKqRGWnq8oyqmdF_RVQ8Hle3aNIz3RI0Nk84K1zhqTe6Je6E0MP4QgTKIvOaeH2g3RW5NzCOMfeW5Oo6sqPiRK4cIIgKJNz7WJQPJ5xxlpa3xHuiDI_NRLkYp7tAe56msWOamTJjiraQFLwyQutu7uTJ9F7cPE3C0kqn_kEeQDG8g01Son6d1FOYhpwpglZylvQJv072vbcUcOY8i2EVVEs_dRnjz4cd0YQimOm3fBHqaAqNDX4vJaWJJGe6D1iAyDJj5BcHt6agXfsWqt1N0WZ_0Rgo_nqCYJbyp4ht7A0fF3mXS9o0J35hiTcA2H4PlrCAiayJz9nBPJ46_6ici9CfeIwY2_CSAjW-j9ouzw7GWjvMmbIA5LvHHlMs6To-j0wizAbvT3fvA984JYZlq5hFeBNX2JVWZaSkF_BV-AD6br_O9KvZ59xjctyBfoLIsEMBa0vBjVjCYz13rmZK5hmIQjCpVQIZWsg6yRmpRhP2swc5mbmg75REzwCtpYCRsPBjX3mUBeUNmuKVtC-d3lB27ytzPV2N_u-3EBm9Rk_6_ZIO3PVNtIM0G4iFHd72s62r2Kh7Q6k7MdcAbWg7qBwhapidurihhDpj4k4m11ANPOYjOrC1QT11leGDdrDzsC6PZjxvVuxSOyVmnhVGdAXj4HkWlwykXL3wrhmvkC0tey2oEgq9uGI-R4tPEAyKgQ-Z0OVPCmrWPid8ARs2XJi5R0sbrSB-6g-CQYtmgnd9nTBa1xDAPo4R79L73FOqNGoFtKgLdXE2uC0C0J7qkM0D9niNCW6aC2kjmNaXUwcEjcNdk4VqlseYOHYgpzLHwTOpi5CioUBJj4OjzzfvtY_8-XiQrmPqhxehHFt-1IfdOZGmfygKLtqmr7ep3npG-Xmn9ApyVC1gIRRT0l9eVZz68ZK3gBrlE0AGroZWAuzLWTX_mVRw74oMmWhY5NiP_fhE0tGtlqK9JbDpqsJIvcCEc6auiTdTEqHksNFiLGBxjSYdnd9Zeg7EaGZLRpUynrS2PY_NsD30MWQtztXmjzWThNu3QxNJyMZTk8-BqGdTgrAGOJcEdaDgBQOzZmjDe0B66ut46k6KWY-UdPcRS-k8PsVmtaVNo-NiqHddyPTV6VRH3KypNNf4VgFLjzDvCNt3ftFp2kxsBMSmr_96_368yj0jabBpEfhB3E8T54FcLZ2qdvOISuNpjZ31708HcZ5jINSI_1NgUhlGUZ1OmRMXg2xRDinvKKDuPRODAssFmyPy-vGHs66LKHOPIns9NmcjHMBa9ynAlPsQuyaOASGLLICFJUYWraI2NnDBMrmFPyWclIgzbqWcUVf2D4c5r1XMLDVFUmZ_0G00]--></g></svg>