<?xml version="1.0" encoding="us-ascii" standalone="no"?><svg xmlns="http://www.w3.org/2000/svg" xmlns:xlink="http://www.w3.org/1999/xlink" contentStyleType="text/css" height="1023px" preserveAspectRatio="none" style="width:1916px;height:1023px;background:#FFFFFF;" version="1.1" viewBox="0 0 1916 1023" width="1916px" zoomAndPan="magnify"><defs/><g><!--cluster ??? ?? ??? (Stroke Prevention System)--><g id="cluster_&#45516;&#51320;&#51473; &#50696;&#48169; &#49884;&#49828;&#53596; (Stroke Prevention System)"><rect fill="none" height="856.12" rx="2.5" ry="2.5" style="stroke:#181818;stroke-width:1.0;" width="1297" x="303" y="161.48"/><text fill="#000000" font-family="sans-serif" font-size="14" font-weight="bold" lengthAdjust="spacing" textLength="306" x="798.5" y="177.0152">&#45516;&#51320;&#51473; &#50696;&#48169; &#49884;&#49828;&#53596; (Stroke Prevention System)</text></g><!--cluster Feature 1:\n?? ??? ??--><g id="cluster_Feature 1:\n&#44148;&#44053; &#45936;&#51060;&#53552; &#44288;&#47532;"><path d="M955.5,222.51 L1050.5,222.51 A3.75,3.75 0 0 1 1053,225.01 L1060,261.4866 L1124.5,261.4866 A2.5,2.5 0 0 1 1127,263.9866 L1127,796.86 A2.5,2.5 0 0 1 1124.5,799.36 L955.5,799.36 A2.5,2.5 0 0 1 953,796.86 L953,225.01 A2.5,2.5 0 0 1 955.5,222.51 " fill="#E0FFFF" style="stroke:#000000;stroke-width:1.5;"/><line style="stroke:#000000;stroke-width:1.5;" x1="953" x2="1060" y1="261.4866" y2="261.4866"/><text fill="#000000" font-family="sans-serif" font-size="14" font-weight="bold" lengthAdjust="spacing" textLength="70" x="969" y="238.0452">Feature 1:</text><text fill="#000000" font-family="sans-serif" font-size="14" font-weight="bold" lengthAdjust="spacing" textLength="94" x="957" y="254.5334">&#44148;&#44053; &#45936;&#51060;&#53552; &#44288;&#47532;</text></g><!--cluster Feature 2:\nAI ??? ??--><g id="cluster_Feature 2:\nAI &#50948;&#54744;&#46020; &#50696;&#52769;"><path d="M329.5,204.48 L415.5,204.48 A3.75,3.75 0 0 1 418,206.98 L425,243.4566 L926.5,243.4566 A2.5,2.5 0 0 1 929,245.9566 L929,578.42 A2.5,2.5 0 0 1 926.5,580.92 L329.5,580.92 A2.5,2.5 0 0 1 327,578.42 L327,206.98 A2.5,2.5 0 0 1 329.5,204.48 " fill="#FFFFE0" style="stroke:#000000;stroke-width:1.5;"/><line style="stroke:#000000;stroke-width:1.5;" x1="327" x2="425" y1="243.4566" y2="243.4566"/><text fill="#000000" font-family="sans-serif" font-size="14" font-weight="bold" lengthAdjust="spacing" textLength="70" x="338.5" y="220.0152">Feature 2:</text><text fill="#000000" font-family="sans-serif" font-size="14" font-weight="bold" lengthAdjust="spacing" textLength="85" x="331" y="236.5034">AI &#50948;&#54744;&#46020; &#50696;&#52769;</text></g><!--cluster ??? ??--><g id="cluster_&#52264;&#48324;&#54868; &#44592;&#45733;"><path d="M353.5,434.29 L419.5,434.29 A3.75,3.75 0 0 1 422,436.79 L429,456.7783 L848.5,456.7783 A2.5,2.5 0 0 1 851,459.2783 L851,554.42 A2.5,2.5 0 0 1 848.5,556.92 L353.5,556.92 A2.5,2.5 0 0 1 351,554.42 L351,436.79 A2.5,2.5 0 0 1 353.5,434.29 " fill="#F5F5F5" style="stroke:#000000;stroke-width:1.5;"/><line style="stroke:#000000;stroke-width:1.5;" x1="351" x2="429" y1="456.7783" y2="456.7783"/><text fill="#000000" font-family="sans-serif" font-size="14" font-weight="bold" lengthAdjust="spacing" textLength="65" x="355" y="449.8252">&#52264;&#48324;&#54868; &#44592;&#45733;</text></g><!--cluster Feature 3:\n?? ????--><g id="cluster_Feature 3:\n&#54801;&#50629; &#47784;&#45768;&#53552;&#47553;"><path d="M1153.5,223.37 L1231.5,223.37 A3.75,3.75 0 0 1 1234,225.87 L1241,262.3466 L1573.5,262.3466 A2.5,2.5 0 0 1 1576,264.8466 L1576,672.62 A2.5,2.5 0 0 1 1573.5,675.12 L1153.5,675.12 A2.5,2.5 0 0 1 1151,672.62 L1151,225.87 A2.5,2.5 0 0 1 1153.5,223.37 " fill="#90EE90" style="stroke:#000000;stroke-width:1.5;"/><line style="stroke:#000000;stroke-width:1.5;" x1="1151" x2="1241" y1="262.3466" y2="262.3466"/><text fill="#000000" font-family="sans-serif" font-size="14" font-weight="bold" lengthAdjust="spacing" textLength="70" x="1158.5" y="238.9052">Feature 3:</text><text fill="#000000" font-family="sans-serif" font-size="14" font-weight="bold" lengthAdjust="spacing" textLength="77" x="1155" y="255.3934">&#54801;&#50629; &#47784;&#45768;&#53552;&#47553;</text></g><!--cluster Feature 4:\n??? ??--><g id="cluster_Feature 4:\n&#49884;&#49828;&#53596; &#44288;&#47532;"><path d="M1300.5,862.09 L1371.5,862.09 A3.75,3.75 0 0 1 1374,864.59 L1381,901.0666 L1573.5,901.0666 A2.5,2.5 0 0 1 1576,903.5666 L1576,991.1 A2.5,2.5 0 0 1 1573.5,993.6 L1300.5,993.6 A2.5,2.5 0 0 1 1298,991.1 L1298,864.59 A2.5,2.5 0 0 1 1300.5,862.09 " fill="#E6E6FA" style="stroke:#000000;stroke-width:1.5;"/><line style="stroke:#000000;stroke-width:1.5;" x1="1298" x2="1381" y1="901.0666" y2="901.0666"/><text fill="#000000" font-family="sans-serif" font-size="14" font-weight="bold" lengthAdjust="spacing" textLength="70" x="1302" y="877.6252">Feature 4:</text><text fill="#000000" font-family="sans-serif" font-size="14" font-weight="bold" lengthAdjust="spacing" textLength="65" x="1304.5" y="894.1134">&#49884;&#49828;&#53596; &#44288;&#47532;</text></g><g id="elem_UC1"><ellipse cx="1038.0025" cy="324.7985" fill="#ADD8E6" rx="69.4425" ry="16.2885" style="stroke:#00008B;stroke-width:0.5;"/><text fill="#000000" font-family="sans-serif" font-size="14" lengthAdjust="spacing" textLength="92" x="989.8998" y="328.62">&#44148;&#44053; &#45936;&#51060;&#53552; &#51077;&#47141;</text></g><g id="elem_UC2"><ellipse cx="1038.0025" cy="514.5985" fill="#ADD8E6" rx="69.4425" ry="16.2885" style="stroke:#00008B;stroke-width:0.5;"/><text fill="#000000" font-family="sans-serif" font-size="14" lengthAdjust="spacing" textLength="92" x="989.8998" y="518.42">&#44148;&#44053; &#45936;&#51060;&#53552; &#51312;&#54924;</text></g><g id="elem_UC3"><ellipse cx="1040.0018" cy="644.4364" fill="#ADD8E6" rx="70.5818" ry="16.5164" style="stroke:#00008B;stroke-width:0.5;"/><text fill="#000000" font-family="sans-serif" font-size="14" lengthAdjust="spacing" textLength="95" x="991.0184" y="648.1124">&#45936;&#51060;&#53552; &#49688;&#51221;/&#49325;&#51228;</text></g><g id="elem_UC4"><ellipse cx="1040.0032" cy="768.6129" fill="#ADD8E6" rx="57.1732" ry="14.7529" style="stroke:#00008B;stroke-width:0.5;"/><text fill="#000000" font-family="sans-serif" font-size="14" lengthAdjust="spacing" textLength="64" x="1005.0032" y="772.6305">&#44060;&#51064; &#47532;&#54252;&#53944;</text></g><g id="elem_UC5"><ellipse cx="523.0048" cy="324.798" fill="#ADD8E6" rx="48.2548" ry="26.318" style="stroke:#00008B;stroke-width:0.5;"/><text fill="#000000" font-family="sans-serif" font-size="14" lengthAdjust="spacing" textLength="36" x="505.0048" y="319.8448">&#50948;&#54744;&#46020;</text><text fill="#000000" font-family="sans-serif" font-size="14" lengthAdjust="spacing" textLength="52" x="497.0048" y="336.3331">&#50696;&#52769; &#50836;&#52397;</text></g><g id="elem_UC6"><ellipse cx="716.0048" cy="324.798" fill="#ADD8E6" rx="48.2548" ry="26.318" style="stroke:#00008B;stroke-width:0.5;"/><text fill="#000000" font-family="sans-serif" font-size="14" lengthAdjust="spacing" textLength="52" x="690.0048" y="319.8448">&#50696;&#52769; &#44208;&#44284;</text><text fill="#000000" font-family="sans-serif" font-size="14" lengthAdjust="spacing" textLength="24" x="704.0048" y="336.3331">&#51312;&#54924;</text></g><g id="elem_UC7"><ellipse cx="390.9966" cy="324.8" fill="#ADD8E6" rx="48.3366" ry="14.68" style="stroke:#00008B;stroke-width:0.5;"/><text fill="#000000" font-family="sans-serif" font-size="14" lengthAdjust="spacing" textLength="52" x="363.0724" y="328.5868">&#44060;&#49440; &#44428;&#44256;</text></g><g id="elem_UC8"><ellipse cx="856.0032" cy="324.8029" fill="#ADD8E6" rx="57.1732" ry="14.7529" style="stroke:#00008B;stroke-width:0.5;"/><text fill="#000000" font-family="sans-serif" font-size="14" lengthAdjust="spacing" textLength="64" x="821.0032" y="328.8205">&#50948;&#54744;&#46020; &#51060;&#47141;</text></g><g id="elem_UC9"><ellipse cx="606.003" cy="514.598" fill="#ADD8E6" rx="56.033" ry="26.318" style="stroke:#00008B;stroke-width:0.5;"/><text fill="#000000" font-family="sans-serif" font-size="14" lengthAdjust="spacing" textLength="52" x="580.003" y="509.6448">&#52628;&#49464; &#50696;&#52769;</text><text fill="#000000" font-family="sans-serif" font-size="14" font-weight="bold" lengthAdjust="spacing" textLength="63" x="574.503" y="526.1331">[&#48120;&#47000; &#50696;&#52769;]</text></g><g id="elem_UC10"><ellipse cx="441.0007" cy="514.598" fill="#ADD8E6" rx="73.7107" ry="26.318" style="stroke:#00008B;stroke-width:0.5;"/><text fill="#000000" font-family="sans-serif" font-size="14" lengthAdjust="spacing" textLength="88" x="397.0007" y="509.6448">&#44060;&#49440; &#49884;&#48044;&#47112;&#51060;&#49496;</text><text fill="#000000" font-family="sans-serif" font-size="14" font-weight="bold" lengthAdjust="spacing" textLength="66" x="408.0007" y="526.1331">[What-if]</text></g><g id="elem_UC11"><ellipse cx="766.0009" cy="514.598" fill="#ADD8E6" rx="68.7609" ry="26.318" style="stroke:#00008B;stroke-width:0.5;"/><text fill="#000000" font-family="sans-serif" font-size="14" lengthAdjust="spacing" textLength="68" x="732.0009" y="509.6448">&#51665;&#45800; &#45236; &#49692;&#50948;</text><text fill="#000000" font-family="sans-serif" font-size="14" font-weight="bold" lengthAdjust="spacing" textLength="81" x="725.5009" y="526.1331">[Percentile]</text></g><g id="elem_UC12"><ellipse cx="1231.9956" cy="324.7971" fill="#ADD8E6" rx="65.1356" ry="15.4271" style="stroke:#00008B;stroke-width:0.5;"/><text fill="#000000" font-family="sans-serif" font-size="14" lengthAdjust="spacing" textLength="80" x="1188.9956" y="328.8147">&#44277;&#50976; &#44428;&#54620; &#44288;&#47532;</text></g><g id="elem_UC13"><ellipse cx="1512.0048" cy="514.598" fill="#ADD8E6" rx="48.2548" ry="26.318" style="stroke:#00008B;stroke-width:0.5;"/><text fill="#000000" font-family="sans-serif" font-size="14" lengthAdjust="spacing" textLength="52" x="1486.0048" y="509.6448">&#54872;&#51088; &#49345;&#53468;</text><text fill="#000000" font-family="sans-serif" font-size="14" lengthAdjust="spacing" textLength="48" x="1488.0048" y="526.1331">&#47784;&#45768;&#53552;&#47553;</text></g><g id="elem_UC14"><ellipse cx="1511.9966" cy="644.44" fill="#ADD8E6" rx="48.3366" ry="14.68" style="stroke:#00008B;stroke-width:0.5;"/><text fill="#000000" font-family="sans-serif" font-size="14" lengthAdjust="spacing" textLength="52" x="1484.0724" y="648.2268">&#50948;&#54744; &#50508;&#47548;</text></g><g id="elem_UC15"><ellipse cx="1379.9966" cy="324.8" fill="#ADD8E6" rx="48.3366" ry="14.68" style="stroke:#00008B;stroke-width:0.5;"/><text fill="#000000" font-family="sans-serif" font-size="14" lengthAdjust="spacing" textLength="52" x="1352.0724" y="328.5868">&#54872;&#51088; &#54056;&#45328;</text></g><g id="elem_UC16"><ellipse cx="1511.9966" cy="324.8" fill="#ADD8E6" rx="48.3366" ry="14.68" style="stroke:#00008B;stroke-width:0.5;"/><text fill="#000000" font-family="sans-serif" font-size="14" lengthAdjust="spacing" textLength="52" x="1484.0724" y="328.5868">&#44288;&#47532; &#47700;&#47784;</text></g><g id="elem_UC17"><ellipse cx="1371.0032" cy="962.8529" fill="#ADD8E6" rx="57.1732" ry="14.7529" style="stroke:#00008B;stroke-width:0.5;"/><text fill="#000000" font-family="sans-serif" font-size="14" lengthAdjust="spacing" textLength="64" x="1336.0032" y="966.8705">&#53080;&#53584;&#52768; &#44288;&#47532;</text></g><g id="elem_UC18"><ellipse cx="1511.9966" cy="962.85" fill="#ADD8E6" rx="48.3366" ry="14.68" style="stroke:#00008B;stroke-width:0.5;"/><text fill="#000000" font-family="sans-serif" font-size="14" lengthAdjust="spacing" textLength="52" x="1484.0724" y="966.6368">&#50508;&#47548; &#51221;&#52293;</text></g><!--entity Patient--><g id="elem_Patient"><ellipse cx="391" cy="14" fill="#90EE90" rx="8" ry="8" style="stroke:#181818;stroke-width:0.5;"/><path d="M391,22 L391,49 M378,30 L404,30 M391,49 L378,64 M391,49 L404,64 " fill="none" style="stroke:#181818;stroke-width:0.5;"/><text fill="#000000" font-family="sans-serif" font-size="14" lengthAdjust="spacing" textLength="64" x="359" y="79.0352">&#44060;&#51064; &#49324;&#50857;&#51088;</text><text fill="#000000" font-family="sans-serif" font-size="14" lengthAdjust="spacing" textLength="57" x="359" y="95.5234">(Patient)</text></g><!--entity Guardian--><g id="elem_Guardian"><ellipse cx="1748" cy="286.81" fill="#FFFFE0" rx="8" ry="8" style="stroke:#181818;stroke-width:0.5;"/><path d="M1748,294.81 L1748,321.81 M1735,302.81 L1761,302.81 M1748,321.81 L1735,336.81 M1748,321.81 L1761,336.81 " fill="none" style="stroke:#181818;stroke-width:0.5;"/><text fill="#000000" font-family="sans-serif" font-size="14" lengthAdjust="spacing" textLength="67" x="1711.5" y="351.8452">&#44032;&#51313;/&#48372;&#54840;&#51088;</text><text fill="#000000" font-family="sans-serif" font-size="14" lengthAdjust="spacing" textLength="73" x="1711.5" y="368.3334">(Guardian)</text></g><!--entity Physician--><g id="elem_Physician"><ellipse cx="1600" cy="14" fill="#FFB6C1" rx="8" ry="8" style="stroke:#181818;stroke-width:0.5;"/><path d="M1600,22 L1600,49 M1587,30 L1613,30 M1600,49 L1587,64 M1600,49 L1613,64 " fill="none" style="stroke:#181818;stroke-width:0.5;"/><text fill="#000000" font-family="sans-serif" font-size="14" lengthAdjust="spacing" textLength="36" x="1563.5" y="79.0352">&#51452;&#52824;&#51032;</text><text fill="#000000" font-family="sans-serif" font-size="14" lengthAdjust="spacing" textLength="73" x="1563.5" y="95.5234">(Physician)</text></g><!--entity Admin--><g id="elem_Admin"><ellipse cx="1654" cy="730.62" fill="#D3D3D3" rx="8" ry="8" style="stroke:#181818;stroke-width:0.5;"/><path d="M1654,738.62 L1654,765.62 M1641,746.62 L1667,746.62 M1654,765.62 L1641,780.62 M1654,765.62 L1667,780.62 " fill="none" style="stroke:#181818;stroke-width:0.5;"/><text fill="#000000" font-family="sans-serif" font-size="14" lengthAdjust="spacing" textLength="76" x="1616" y="795.6552">&#49884;&#49828;&#53596; &#44288;&#47532;&#51088;</text><text fill="#000000" font-family="sans-serif" font-size="14" lengthAdjust="spacing" textLength="55" x="1616" y="812.1434">(Admin)</text></g><!--link Patient to Guardian--><!--link Physician to Admin--><!--link UC1 to UC2--><!--link UC2 to UC3--><!--link UC3 to UC4--><!--link UC12 to UC13--><!--link UC12 to UC13--><g id="link_UC12_UC13"><path d="M1252.59,339.61 C1301.59,372.47 1420.3169,452.1081 1477.3669,490.3681 " fill="none" id="UC12-to-UC13-1" style="stroke:#000000;stroke-width:1.0;stroke-dasharray:7.0,7.0;"/><polygon fill="#000000" points="1482.35,493.71,1477.1032,485.3751,1478.1974,490.9251,1472.6474,492.0193,1482.35,493.71" style="stroke:#000000;stroke-width:1.0;"/><text fill="#000000" font-family="sans-serif" font-size="13" lengthAdjust="spacing" textLength="60" x="1364.6" y="414.8584">&#171;include&#187;</text></g><!--link UC13 to UC14--><!--link UC17 to UC18--><!--link UC1 to UC5--><!--link UC1 to UC5--><g id="link_UC1_UC5"><path d="M1025.71,308.53 C997.2,270.82 929,180.59 929,180.59 C929,180.59 650,180.59 650,180.59 C650,180.59 584.0053,255.5171 547.9353,296.4771 " fill="none" id="UC1-to-UC5-1" style="stroke:#000000;stroke-width:1.0;stroke-dasharray:7.0,7.0;"/><polygon fill="#000000" points="543.97,300.98,552.9199,296.8692,547.2744,297.2276,546.9161,291.5821,543.97,300.98" style="stroke:#000000;stroke-width:1.0;"/><text fill="#000000" font-family="sans-serif" font-size="13" lengthAdjust="spacing" textLength="60" x="740" y="142.0484">&#171;include&#187;</text></g><!--link UC5 to UC12--><!--link UC4 to UC17--><!--link Patient to UC1--><g id="link_Patient_UC1"><path d="M423.45,58.85 C521.66,76.59 809,128.48 809,128.48 C809,128.48 929,153.48 929,153.48 C929,153.48 998.0656,261.4064 1024.8956,303.3264 " fill="none" id="Patient-to-UC1" style="stroke:#000000;stroke-width:1.0;"/><polygon fill="#000000" points="1028.13,308.38,1026.6474,298.6434,1025.4346,304.1687,1019.9093,302.9559,1028.13,308.38" style="stroke:#000000;stroke-width:1.0;"/></g><!--link Patient to UC2--><g id="link_Patient_UC2"><path d="M361.81,98.82 C344.93,125.33 327,153.48 327,153.48 C327,153.48 327,371.29 327,371.29 C327,371.29 540,418.29 540,418.29 C540,418.29 851,426.29 851,426.29 C851,426.29 949.6532,472.3521 1002.5232,497.0321 " fill="none" id="Patient-to-UC2" style="stroke:#000000;stroke-width:1.0;"/><polygon fill="#000000" points="1007.96,499.57,1001.4967,492.1386,1003.4293,497.4551,998.1128,499.3876,1007.96,499.57" style="stroke:#000000;stroke-width:1.0;"/></g><!--link Patient to UC4--><g id="link_Patient_UC4"><path d="M358.68,61.8 C285.61,81.71 114,128.48 114,128.48 C114,128.48 6,323.8 6,323.8 C6,323.8 6,323.8 6,645.44 C6,645.44 775.0014,736.296 983.1214,760.886 " fill="none" id="Patient-to-UC4" style="stroke:#000000;stroke-width:1.0;"/><polygon fill="#000000" points="989.08,761.59,980.6115,756.5616,984.1145,761.0033,979.6728,764.5063,989.08,761.59" style="stroke:#000000;stroke-width:1.0;"/></g><!--link Patient to UC5--><g id="link_Patient_UC5"><path d="M423.31,93.57 C445.51,121.46 471,153.48 471,153.48 C471,153.48 499.1075,245.5516 513.5775,292.9316 " fill="none" id="Patient-to-UC5" style="stroke:#000000;stroke-width:1.0;"/><polygon fill="#000000" points="515.33,298.67,516.5268,288.8941,513.8696,293.888,508.8757,291.2308,515.33,298.67" style="stroke:#000000;stroke-width:1.0;"/></g><!--link Patient to UC7--><g id="link_Patient_UC7"><path d="M391,98.93 C391,161.7 391,264.92 391,303.67 " fill="none" id="Patient-to-UC7" style="stroke:#000000;stroke-width:1.0;"/><polygon fill="#000000" points="391,309.67,395,300.67,391,304.67,387,300.67,391,309.67" style="stroke:#000000;stroke-width:1.0;"/></g><!--link Patient to UC9--><g id="link_Patient_UC9"><path d="M358.75,65.29 C302.64,86.68 193,128.48 193,128.48 C193,128.48 193,418.29 193,418.29 C193,418.29 532,426.29 532,426.29 C532,426.29 559.9905,459.3129 581.9005,485.1629 " fill="none" id="Patient-to-UC9" style="stroke:#000000;stroke-width:1.0;"/><polygon fill="#000000" points="585.78,489.74,583.0122,480.2881,582.5471,485.9258,576.9094,485.4607,585.78,489.74" style="stroke:#000000;stroke-width:1.0;"/></g><!--link Patient to UC10--><g id="link_Patient_UC10"><path d="M358.55,62.1 C287.01,82.17 122,128.48 122,128.48 C122,128.48 122,418.29 122,418.29 C122,418.29 288.2912,467.9721 379.6812,495.2821 " fill="none" id="Patient-to-UC10" style="stroke:#000000;stroke-width:1.0;"/><polygon fill="#000000" points="385.43,497,377.9521,490.5906,380.6393,495.5684,375.6615,498.2557,385.43,497" style="stroke:#000000;stroke-width:1.0;"/></g><!--link Patient to UC11--><g id="link_Patient_UC11"><path d="M358.62,72.23 C321,94.6 264,128.48 264,128.48 C264,128.48 264,418.29 264,418.29 C264,418.29 680,426.29 680,426.29 C680,426.29 712.8297,459.6152 738.2897,485.4652 " fill="none" id="Patient-to-UC11" style="stroke:#000000;stroke-width:1.0;"/><polygon fill="#000000" points="742.5,489.74,739.0344,480.521,738.9914,486.1777,733.3347,486.1347,742.5,489.74" style="stroke:#000000;stroke-width:1.0;"/></g><!--link Patient to UC12--><g id="link_Patient_UC12"><path d="M423.1,57.37 C564.76,76.71 1127,153.48 1127,153.48 C1127,153.48 1194.5116,262.9824 1219.9016,304.1724 " fill="none" id="Patient-to-UC12" style="stroke:#000000;stroke-width:1.0;"/><polygon fill="#000000" points="1223.05,309.28,1221.7325,299.5197,1220.4263,305.0237,1214.9223,303.7175,1223.05,309.28" style="stroke:#000000;stroke-width:1.0;"/></g><!--link Patient to UC14--><g id="link_Patient_UC14"><path d="M423.23,55.19 C605.41,67.61 1498,128.48 1498,128.48 C1498,128.48 1802,153.48 1802,153.48 C1802,153.48 1802,371.29 1802,371.29 C1802,371.29 1727,588.92 1727,588.92 C1727,588.92 1615.0059,617.3151 1553.8059,632.8351 " fill="none" id="Patient-to-UC14" style="stroke:#000000;stroke-width:1.0;"/><polygon fill="#000000" points="1547.99,634.31,1557.6971,635.9749,1552.8366,633.0809,1555.7306,628.2204,1547.99,634.31" style="stroke:#000000;stroke-width:1.0;"/><text fill="#000000" font-family="sans-serif" font-size="13" lengthAdjust="spacing" textLength="22" x="1792.24" y="414.8584">&#49688;&#49888;</text></g><!--link Guardian to UC13--><g id="link_Guardian_UC13"><path d="M1711.27,361.56 C1684.54,387.58 1653,418.29 1653,418.29 C1653,418.29 1587.8706,462.3094 1546.5306,490.2594 " fill="none" id="Guardian-to-UC13" style="stroke:#000000;stroke-width:1.0;"/><polygon fill="#000000" points="1541.56,493.62,1551.2562,491.8928,1545.7021,490.8195,1546.7754,485.2654,1541.56,493.62" style="stroke:#000000;stroke-width:1.0;"/><text fill="#000000" font-family="sans-serif" font-size="13" lengthAdjust="spacing" textLength="22" x="1669.93" y="414.8584">&#51312;&#54924;</text></g><!--link Guardian to UC14--><g id="link_Guardian_UC14"><path d="M1724.64,371.77 C1712.84,394.98 1701,418.29 1701,418.29 C1701,418.29 1578,588.92 1578,588.92 C1578,588.92 1552.1362,610.2892 1532.6062,626.4192 " fill="none" id="Guardian-to-UC14" style="stroke:#000000;stroke-width:1.0;"/><polygon fill="#000000" points="1527.98,630.24,1537.4665,627.5929,1531.8351,627.056,1532.3721,621.4247,1527.98,630.24" style="stroke:#000000;stroke-width:1.0;"/><text fill="#000000" font-family="sans-serif" font-size="13" lengthAdjust="spacing" textLength="22" x="1696.02" y="519.6684">&#49688;&#49888;</text></g><!--link Physician to UC13--><g id="link_Physician_UC13"><path d="M1599.5,98.96 C1599.25,122.18 1599,145.48 1599,145.48 C1599,145.48 1578,371.29 1578,371.29 C1578,371.29 1544.9346,442.597 1526.0246,483.367 " fill="none" id="Physician-to-UC13" style="stroke:#000000;stroke-width:1.0;"/><polygon fill="#000000" points="1523.5,488.81,1530.9156,482.3285,1525.6038,484.2742,1523.6582,478.9624,1523.5,488.81" style="stroke:#000000;stroke-width:1.0;"/><text fill="#000000" font-family="sans-serif" font-size="13" lengthAdjust="spacing" textLength="44" x="1599.14" y="329.8684">&#47784;&#45768;&#53552;&#47553;</text></g><!--link Physician to UC15--><g id="link_Physician_UC15"><path d="M1563.11,77.06 C1517.55,106.79 1446,153.48 1446,153.48 C1446,153.48 1403.3275,263.5852 1387.5675,304.2652 " fill="none" id="Physician-to-UC15" style="stroke:#000000;stroke-width:1.0;"/><polygon fill="#000000" points="1385.4,309.86,1392.3811,302.9128,1387.2063,305.1977,1384.9214,300.0228,1385.4,309.86" style="stroke:#000000;stroke-width:1.0;"/></g><!--link Physician to UC16--><g id="link_Physician_UC16"><path d="M1585.07,98.93 C1564.62,161.86 1530.8642,265.7337 1518.3542,304.2337 " fill="none" id="Physician-to-UC16" style="stroke:#000000;stroke-width:1.0;"/><polygon fill="#000000" points="1516.5,309.94,1523.0855,302.6167,1518.0452,305.1847,1515.4771,300.1444,1516.5,309.94" style="stroke:#000000;stroke-width:1.0;"/></g><!--link Admin to UC17--><g id="link_Admin_UC17"><path d="M1615.85,785.1 C1555.8,809.49 1446,854.09 1446,854.09 C1446,854.09 1404.1079,914.2856 1383.9279,943.2756 " fill="none" id="Admin-to-UC17" style="stroke:#000000;stroke-width:1.0;"/><polygon fill="#000000" points="1380.5,948.2,1388.9247,943.0987,1383.3566,944.0963,1382.3589,938.5282,1380.5,948.2" style="stroke:#000000;stroke-width:1.0;"/></g><!--link Admin to UC18--><g id="link_Admin_UC18"><path d="M1620.35,815.16 C1588.36,858.47 1545.8043,916.0834 1525.6443,943.3834 " fill="none" id="Admin-to-UC18" style="stroke:#000000;stroke-width:1.0;"/><polygon fill="#000000" points="1522.08,948.21,1530.6441,943.3463,1525.0502,944.1878,1524.2087,938.5939,1522.08,948.21" style="stroke:#000000;stroke-width:1.0;"/></g><!--link UC5 to UC6--><g id="link_UC5_UC6"><path d="M571.7,324.8 C600.96,324.8 632.06,324.8 661.31,324.8 " fill="none" id="UC5-to-UC6" style="stroke:#000000;stroke-width:1.0;stroke-dasharray:7.0,7.0;"/><polygon fill="#000000" points="667.31,324.8,658.31,320.8,662.31,324.8,658.31,328.8,667.31,324.8" style="stroke:#000000;stroke-width:1.0;"/><text fill="#000000" font-family="sans-serif" font-size="13" lengthAdjust="spacing" textLength="60" x="589.5" y="318.3684">&#171;include&#187;</text></g><!--link UC6 to UC9--><g id="link_UC6_UC9"><path d="M701.19,350.1 C687.74,372.17 670,401.29 670,401.29 C670,401.29 642.0311,450.3772 623.1711,483.4672 " fill="none" id="UC6-to-UC9" style="stroke:#000000;stroke-width:1.0;stroke-dasharray:7.0,7.0;"/><polygon fill="#000000" points="620.2,488.68,628.1318,482.8416,622.6759,484.336,621.1814,478.8802,620.2,488.68" style="stroke:#000000;stroke-width:1.0;"/><text fill="#000000" font-family="sans-serif" font-size="13" lengthAdjust="spacing" textLength="57" x="671" y="414.8584">&#171;extend&#187;</text></g><!--link UC6 to UC10--><g id="link_UC6_UC10"><path d="M682.68,343.99 C629.66,372.95 532,426.29 532,426.29 C532,426.29 497.1393,459.7358 470.1993,485.5858 " fill="none" id="UC6-to-UC10" style="stroke:#000000;stroke-width:1.0;stroke-dasharray:7.0,7.0;"/><polygon fill="#000000" points="465.87,489.74,475.1334,486.395,469.4778,486.2782,469.5945,480.6226,465.87,489.74" style="stroke:#000000;stroke-width:1.0;"/><text fill="#000000" font-family="sans-serif" font-size="13" lengthAdjust="spacing" textLength="57" x="577.47" y="414.8584">&#171;extend&#187;</text></g><!--link UC6 to UC11--><g id="link_UC6_UC11"><path d="M722.74,351.13 C732.29,386.97 748.0869,446.3218 757.6569,482.2818 " fill="none" id="UC6-to-UC11" style="stroke:#000000;stroke-width:1.0;stroke-dasharray:7.0,7.0;"/><polygon fill="#000000" points="759.2,488.08,760.7509,478.354,757.9141,483.2482,753.0199,480.4114,759.2,488.08" style="stroke:#000000;stroke-width:1.0;"/><text fill="#000000" font-family="sans-serif" font-size="13" lengthAdjust="spacing" textLength="57" x="740.5" y="414.8584">&#171;extend&#187;</text></g><!--SRC=[XLPjInjP5Fu-l-AI_L0hQ9iNtqeHr6Mxo_Q384ifjH-6v3OPCiw4cScweGYjJLZHb2eOEagKo6hLOdV79YjPi7yezyv_s7FldKpcJIeYddlES-uvptcvOvOLhI8RyXfI5GrRjGf65LsjCK4oVLtLn7dPnEYrXE1dKSwNYuPUrGfBkgeRwAbIB5cBQXKBhMuKi24qFyf6sLSi68Q-BiuNLN0XRKZIFRIGj-20jklqFnkHcphTT11n790acQjI0wTDZ_g8RbxHmqjwlBkgZItBbe8rwtuAoIRo1FG3Z-E9WR4sWhwX9zSFIBVdsdq1VLALZO8YQm8xb3pmSwog-leGJV-wXJ3eaSrkBDLC9U_ZVD43BYjQ6I4VkDEcswTkeuq6lJVaqvMuUQ6mfdXm_gyVi5nZHFoi50fOOsKec-WLk57bcbwrK5xNB4DNfM6Q4ozAtF9bGL_N9lmCf5584Gj-cIGPE6_9Mb75A4N-RDAJFZtTGzJU8iub6WKyjWANbJ5QDl3lS9kYQsYbPbfu3G9drOVVU-WdB5jL0wCqca3qu9P-_eRekxTavmAq5QYiN8HBVAD7gzhWkZTmMeYyT-XHpwqx7YyfZuAb6aGjUclOQRyjfHbHgHYI7ZT8vomLCSxSONpYk8VDg76M6mUijcpQQJsWcrzefnqrpWdFeWSXPlV3bRlT5rRy3uiqpFWy2yZJPH9qMK-NJT3bGBSHvJd3U3xTews3988pGF32Bso4t8ys-L1dHQNzarIefprwBRs8hH8sF36Ow1HFrFUogWatY1xkqwzVKZ7xQM4lZ0PVdK7t5Z01mZT678rGCpwTzGuQt3G7tKwKyTbm80Ygv5US__4PeCu5wTRTWtqqw3ja-mnIVbPIBBoonbeudkASy7opJ-jzZwLLRNpy1VcdJuvjx-Jb-7WysVJ3ODmmBkJlAzBPWj1em-O-dfLaQq9vbOmMlKpFzs164DdiGSkr8K4ENCP6dasQYdtiHb8JP5aJsAVah0_pbjG7MUW3rzwZ7nk8VBuWErlGs-JyRIgu6EDJvarEzr_QvWLnMyEj5QrBMioDUs33FcC3xxvhhsgXgwA8NA2KYBQQvDDjp6OgwDLjNf3wRin6z9e82v7BVRWqF859OvOUpbawQT3IYPEM0vBTbdt7Aii1mz7TpkYLOLKM_A4An2swdNwptSOkxNVk8jRhUCuFWbL4hnlXz6P62HYibYA3MPu1VqMVYhUYXDKADamfj9D6Y2c9ZNcIgup4Dbq2IpFC-_3fWQT8WrS47WKJUF8N_EXf4fY8d8d8kU-xp43gOT1KH9w9o7FH81v63zBVlpORnKH3XuP-n9-BdGxpvdyz1Dn9_g47oJ88NuinLTZRw04FHeU23_l8Ot3iuXPJyQDf_h75lpk2qOgJYM6nG-8iW_oAQwnL4UzL0wionvMKYed6s0VIuJxhwa6tJiwRoDrhmtpSv_qtoTjhaXSF0dxyMD7oQhM0v-Tv5mRKqp7rD9hacZckmNzOC5yX1UpZkpJfg0QMmoHhw4cVlE1b_mC0]--></g></svg>